<?xml version="1.0" encoding="UTF-8" standalone="no"?>
<!-- Created with Inkscape (http://www.inkscape.org/) -->

<svg
   xmlns:dc="http://purl.org/dc/elements/1.1/"
   xmlns:cc="http://creativecommons.org/ns#"
   xmlns:rdf="http://www.w3.org/1999/02/22-rdf-syntax-ns#"
   xmlns:svg="http://www.w3.org/2000/svg"
   xmlns="http://www.w3.org/2000/svg"
   xmlns:sodipodi="http://sodipodi.sourceforge.net/DTD/sodipodi-0.dtd"
   xmlns:inkscape="http://www.inkscape.org/namespaces/inkscape"
   width="132.29164mm"
   height="136.90683mm"
   viewBox="0 0 132.29164 136.90683"
   version="1.1"
   id="svg1667"
   inkscape:version="0.92.3 (2405546, 2018-03-11)"
   sodipodi:docname="centre_for_telepsychiatry.svg">
  <defs
     id="defs1661" />
  <sodipodi:namedview
     id="base"
     pagecolor="#ffffff"
     bordercolor="#666666"
     borderopacity="1.0"
     inkscape:pageopacity="0.0"
     inkscape:pageshadow="2"
     inkscape:zoom="1.4"
     inkscape:cx="223.85344"
     inkscape:cy="270.2396"
     inkscape:document-units="mm"
     inkscape:current-layer="layer1"
     showgrid="false"
     fit-margin-top="0"
     fit-margin-left="0"
     fit-margin-right="0"
     fit-margin-bottom="0"
     inkscape:window-width="1920"
     inkscape:window-height="1043"
     inkscape:window-x="1920"
     inkscape:window-y="0"
     inkscape:window-maximized="1"
     inkscape:pagecheckerboard="true" />
  <metadata
     id="metadata1664">
    <rdf:RDF>
      <cc:Work
         rdf:about="">
        <dc:format>image/svg+xml</dc:format>
        <dc:type
           rdf:resource="http://purl.org/dc/dcmitype/StillImage" />
        <dc:title></dc:title>
      </cc:Work>
    </rdf:RDF>
  </metadata>
  <g
     inkscape:label="Layer 1"
     inkscape:groupmode="layer"
     id="layer1"
     transform="translate(-291.0846,-251.29031)">
    <path
       d="m 291.08592,251.36349 v 73.30142 c 0.25623,-0.40233 0.3295,-0.91492 0.47573,-1.35376 0.18296,-0.62211 0.40234,-1.28085 0.62215,-1.90295 0.69529,-2.15918 1.39062,-4.28172 2.08595,-6.4409 1.28085,-4.02554 2.56169,-8.01448 3.87917,-12.00342 l 1.17107,-3.65958 c 0.21937,-0.73192 0.54892,-1.4638 0.6587,-2.19572 h 30.92348 c -0.40278,-0.40234 -0.95152,-0.69534 -1.42726,-1.0247 -0.8051,-0.54893 -1.6468,-1.13448 -2.45191,-1.6834 l -7.79493,-5.37961 c -3.29361,-2.26891 -6.55063,-4.53786 -9.88083,-6.80682 -0.98811,-0.65869 -1.97618,-1.39062 -2.96429,-2.04936 -0.51233,-0.3295 -0.98807,-0.76851 -1.57362,-1.02465 2.01277,-6.03831 3.87917,-12.11325 5.85534,-18.15155 0.69533,-2.12254 1.39062,-4.28168 2.08595,-6.44086 0.36592,-1.06155 0.76852,-2.15944 1.0247,-3.25732 h -22.6894 z"
       id="path895"
       inkscape:connector-curvature="0"
       style="display:inline;opacity:1;fill:none;stroke-width:0.30496502"
       inkscape:export-xdpi="300"
       inkscape:export-ydpi="300" />
    <path
       d="m 304.88251,279.17632 c 2.23236,1.42721 4.35491,3.00083 6.51409,4.50127 4.31831,2.96429 8.59999,5.92853 12.9183,8.89277 1.64681,1.13448 3.29361,2.30555 4.97705,3.44002 0.40234,0.25623 0.80511,0.54893 1.17103,0.80511 0.18296,0.14654 0.40233,0.29265 0.65874,0.29265 0.40233,-0.0351 0.87829,-0.47574 1.17107,-0.73193 0.87829,-0.62214 1.79317,-1.28084 2.6715,-1.93958 3.40339,-2.45191 6.84341,-4.90383 10.2468,-7.35574 2.56173,-1.8664 5.12342,-3.69621 7.72175,-5.52597 l 1.93958,-1.39067 c 0.21937,-0.14654 0.58551,-0.3295 0.6221,-0.6221 0.0351,-0.25623 -0.14654,-0.58556 -0.25623,-0.8417 -0.18296,-0.47578 -0.36591,-0.98811 -0.54892,-1.50044 -0.73192,-1.93958 -1.42725,-3.91576 -2.15913,-5.85534 -1.68344,-4.24509 -3.14725,-8.5634 -4.75746,-12.84512 -0.58556,-1.57362 -1.17107,-3.14725 -1.75663,-4.72087 -0.29264,-0.80511 -0.65869,-1.57362 -0.87829,-2.41532 h -23.09196 -6.00171 -1.57362 c -0.18296,0 -0.43915,-0.0351 -0.62211,0.0733 -0.18295,0.10969 -0.21937,0.40233 -0.25623,0.54897 -0.14654,0.43914 -0.29264,0.91488 -0.43914,1.35402 -0.58551,1.75663 -1.13448,3.51321 -1.71999,5.30643 -1.46385,4.61104 -2.96429,9.22214 -4.46468,13.83318 -0.65874,2.19577 -1.53703,4.42809 -2.086,6.69705 z"
       id="path897"
       inkscape:connector-curvature="0"
       style="display:inline;opacity:1;fill:#473f40;stroke-width:0.30496502"
       inkscape:export-xdpi="300"
       inkscape:export-ydpi="300" />
    <path
       d="m 345.1745,251.36349 c 0.10969,0.80511 0.51237,1.57362 0.80511,2.34214 0.47573,1.20766 0.87829,2.41532 1.31748,3.58639 1.39062,3.62298 2.67146,7.24596 4.02553,10.86894 0.91488,2.45192 1.82977,4.90387 2.70806,7.35579 0.29264,0.8051 0.58555,1.61021 0.87833,2.41532 0.18296,0.47573 0.29265,1.06125 0.58551,1.50044 0.18296,-0.29265 0.25623,-0.65874 0.36592,-0.98811 l 0.58556,-1.82981 c 0.69529,-2.12255 1.39092,-4.28168 2.08595,-6.44086 1.28084,-3.98894 2.56169,-7.94129 3.84284,-11.93019 0.40233,-1.2443 0.80511,-2.48855 1.20766,-3.7328 0.29265,-0.80511 0.65874,-1.6834 0.80511,-2.5251 h 31.32603 c 0.10969,0.80511 0.54923,1.61021 0.84201,2.41532 0.58551,1.57362 1.13447,3.14724 1.75658,4.72087 1.75662,4.57445 3.47631,9.22214 5.12342,13.83318 0.62215,1.75663 1.24425,3.51321 1.93958,5.2332 0.18296,0.47578 0.36548,0.95152 0.51233,1.42726 0.0733,0.18295 0.18296,0.43914 0.10969,0.62214 -0.0733,0.21938 -0.3295,0.3295 -0.51264,0.47574 -0.40233,0.29265 -0.84169,0.6221 -1.24425,0.91488 -1.53703,1.09789 -3.07406,2.19577 -4.61078,3.29361 -4.2454,3.03747 -8.49053,6.03831 -12.69906,9.11237 -1.17103,0.87829 -2.37869,1.6834 -3.54976,2.56169 -0.47609,0.36591 -1.09819,0.69533 -1.50044,1.13447 h 30.92313 c 0.10969,0.76852 0.51268,1.53703 0.80542,2.26896 0.58555,1.57362 1.17107,3.14724 1.75662,4.72086 1.71999,4.64764 3.40339,9.29533 5.16002,13.90642 0.58551,1.57362 1.17106,3.1472 1.75658,4.72052 0.29264,0.80541 0.65874,1.57362 0.87829,2.41562 0.25623,-0.54922 0.0733,-1.39092 0.0733,-1.97613 v -4.3915 -15.18725 -52.84438 z"
       id="path899"
       inkscape:connector-curvature="0"
       style="display:inline;opacity:1;fill:none;stroke-width:0.30496502"
       inkscape:export-xdpi="300"
       inkscape:export-ydpi="300" />
    <path
       d="m 364.46052,251.91246 c -0.21937,0.84169 -0.54896,1.68339 -0.80541,2.52509 -0.51238,1.53703 -0.98781,3.07406 -1.50044,4.57446 -1.46385,4.42813 -2.85416,8.89281 -4.31801,13.35749 -0.58582,1.79317 -1.17137,3.58639 -1.7203,5.37956 -0.14654,0.43915 -0.29264,0.91493 -0.43914,1.35408 -0.0733,0.18296 -0.18296,0.43914 -0.10969,0.6221 0.0733,0.18296 0.25623,0.25623 0.43915,0.36592 l 1.02466,0.73192 c 1.28084,0.87829 2.59863,1.75658 3.84288,2.67151 4.90382,3.43998 9.88057,6.73359 14.7478,10.17361 1.46381,1.0247 2.92796,2.01277 4.3915,3.00088 0.36592,0.25623 0.73162,0.51233 1.09784,0.76852 0.1834,0.10968 0.36592,0.25623 0.58556,0.25623 0.43914,-0.0351 0.87829,-0.47579 1.17107,-0.73193 0.91488,-0.65874 1.82976,-1.31748 2.74469,-1.97617 3.43998,-2.45192 6.88031,-4.94046 10.32029,-7.42897 2.48824,-1.75658 4.94015,-3.5498 7.42866,-5.34297 0.65874,-0.47574 1.35402,-0.95152 2.01307,-1.42726 0.21938,-0.18295 0.58556,-0.36591 0.69503,-0.6221 0.0733,-0.21938 -0.0351,-0.43919 -0.10925,-0.62215 -0.1834,-0.51233 -0.36592,-0.98811 -0.54897,-1.50044 -0.69533,-1.71999 -1.31743,-3.47661 -1.93958,-5.23319 -1.64681,-4.61109 -3.3668,-9.18555 -5.08683,-13.76001 -0.58551,-1.57362 -1.17107,-3.14724 -1.75658,-4.72086 -0.29265,-0.80511 -0.65843,-1.57363 -0.87829,-2.41532 z"
       id="path901"
       inkscape:connector-curvature="0"
       style="display:inline;opacity:1;fill:#70cac8;stroke-width:0.30496502"
       inkscape:export-xdpi="300"
       inkscape:export-ydpi="300" />
    <path
       d="m 326.25448,256.70651 c -1.09788,0.29264 -1.20766,1.31743 -1.0247,2.23231 0.51237,2.26896 1.13448,4.53791 1.72004,6.77023 0.18295,0.62215 0.3295,1.28084 0.47573,1.90299 0.0733,0.29265 0.10969,0.58552 -0.21937,0.76852 -0.29265,0.14654 -0.54892,-0.0733 -0.69529,-0.29265 -0.40233,-0.51233 -0.51237,-1.24425 -0.69533,-1.82976 -0.43915,-1.39067 -0.91488,-2.78129 -1.31744,-4.17195 -0.21937,-0.69533 -0.36592,-1.57362 -0.73192,-2.19573 -0.54897,-0.87833 -1.90299,-1.0247 -2.63492,-0.29264 -0.6221,0.6221 -0.43914,1.35403 -0.18296,2.12254 0.25623,0.76852 0.51233,1.53703 0.73188,2.34214 0.65874,2.15913 1.42726,4.31831 2.04941,6.51404 0.43914,1.53703 0.8051,3.25706 0.54892,4.86728 -0.0351,0.29264 -0.14655,0.69528 -0.36592,0.87829 -0.47574,0.36591 -1.61021,-0.0351 -2.12254,-0.14655 -0.40234,-0.0733 -0.80511,-0.18295 -1.17107,-0.29264 -1.61022,-0.36592 -3.98895,-1.35407 -5.08683,0.36592 -0.14654,0.21937 -0.25623,0.43914 -0.29265,0.69528 -0.0351,0.25623 -0.10969,0.73193 0.14655,0.95152 0.36591,0.29265 1.20766,0.25623 1.68339,0.36592 1.28085,0.25623 2.48851,0.6221 3.69617,1.06125 1.97617,0.73192 3.87917,1.6834 5.63575,2.78128 0.51237,0.3295 1.0247,0.65874 1.50044,1.0247 0.36591,0.29265 0.73192,0.62211 1.17107,0.80511 2.45191,0.98807 4.86723,0.76852 7.35573,-0.0351 0.80511,-0.25623 1.72004,-0.58556 2.37873,-1.17107 0.95152,-0.87829 1.20766,-2.15918 1.39067,-3.36684 0.29264,-1.75658 0.29264,-3.5498 0,-5.30638 -0.21938,-1.31743 -0.65874,-2.59828 -0.8417,-3.95235 -0.21938,-1.6834 -0.36592,-3.40339 -0.58556,-5.08683 -0.21937,-1.6834 -0.3295,-3.36679 -0.58551,-5.0136 -0.10969,-0.69533 -0.18296,-1.46385 -1.0247,-1.71999 -0.87829,-0.25623 -1.86636,0.14654 -1.97618,1.06125 -0.10969,0.73192 0.10969,1.53703 0.18296,2.26896 0.14654,1.02465 0.21938,2.01276 0.36592,3.03742 0.0733,0.47578 0.25623,1.13448 0.18296,1.61021 -0.0351,0.21938 -0.18296,0.43919 -0.43915,0.47579 -0.3295,0.0351 -0.47574,-0.29265 -0.58551,-0.54897 -0.21938,-0.58551 -0.25623,-1.24425 -0.36592,-1.82976 -0.25623,-1.53703 -0.47578,-3.07406 -0.76851,-4.5745 -0.10969,-0.69529 -0.14655,-1.46381 -0.40234,-2.12255 -0.3295,-0.87829 -1.50044,-1.28084 -2.37873,-0.8051 -0.91492,0.47573 -0.8417,1.42725 -0.69533,2.23236 0.3295,1.86636 0.62215,3.73276 0.91488,5.56256 0.10969,0.6587 0.29265,1.31744 0.32951,1.97614 0,0.21937 -0.0733,0.54896 -0.32951,0.58555 -0.29264,0.0351 -0.47573,-0.29264 -0.58551,-0.51233 -0.29265,-0.65874 -0.43914,-1.42725 -0.58556,-2.12258 -0.36591,-1.57363 -0.8051,-3.11061 -1.20766,-4.64764 -0.21937,-0.80511 -0.29264,-1.72004 -0.65869,-2.48855 -0.29265,-0.62211 -1.17107,-0.95148 -1.90299,-0.73188 m 57.27242,20.93278 c 0.25623,0.51233 0.69533,0.87829 1.09819,1.28085 l 1.93927,1.82981 c 1.0982,1.06125 2.19573,2.15913 3.33021,3.18383 1.79352,1.61022 4.97705,0.25623 4.5745,-2.19577 -0.18296,-1.02466 -0.95121,-1.6468 -1.68344,-2.34214 l -3.62299,-3.47657 c -0.58551,-0.54896 -1.20766,-1.39066 -2.01307,-1.68339 0.36592,-0.80511 0.84201,-1.53703 1.09819,-2.41537 0.80511,-2.74465 0.54892,-5.59916 -0.87829,-8.12425 -0.58555,-1.02466 -1.35407,-1.93959 -2.26895,-2.7081 -3.5498,-2.89106 -8.783,-3.43998 -12.84512,-1.13444 -1.28085,0.73188 -2.37873,1.71999 -3.25702,2.85447 -0.80511,1.02466 -1.35407,2.23232 -1.68371,3.47657 -1.17107,4.42809 0.80542,9.25878 5.0136,11.56428 1.17107,0.62215 2.45192,1.06129 3.7694,1.28089 1.24425,0.18296 2.56138,0.1461 3.76904,-0.0733 1.31805,-0.21937 2.52571,-0.69528 3.66019,-1.31743 z"
       id="path903"
       inkscape:connector-curvature="0"
       style="display:inline;opacity:1;fill:#ffffff;stroke-width:0.30496502"
       inkscape:export-xdpi="300"
       inkscape:export-ydpi="300" />
    <path
       d="m 376.90309,261.90311 c -1.06099,0.14654 -2.12259,0.47574 -3.03747,1.06125 -0.8417,0.51237 -1.53703,1.17107 -2.08595,1.93958 -2.59863,3.7328 -0.80542,9.07578 3.76904,10.4664 1.09819,0.3295 2.19577,0.40277 3.33055,0.25623 0.95117,-0.10969 1.90265,-0.47574 2.74465,-0.95148 0.80511,-0.47578 1.46385,-1.06129 2.01277,-1.79322 1.93958,-2.45191 1.82981,-6.00171 -0.14654,-8.41703 -0.98776,-1.20766 -2.41532,-2.04936 -3.95231,-2.41532 -0.80511,-0.18296 -1.75663,-0.25623 -2.63492,-0.14654 z"
       id="path905"
       inkscape:connector-curvature="0"
       style="display:inline;opacity:1;fill:#70cac8;stroke-width:0.30496502"
       inkscape:export-xdpi="300"
       inkscape:export-ydpi="300" />
    <path
       d="m 355.38475,279.83506 c -0.51233,0.0733 -1.13448,0.73188 -1.57362,1.02466 -1.20766,0.87829 -2.41532,1.75658 -3.62299,2.59832 -4.50127,3.22043 -8.9294,6.44086 -13.43067,9.66129 -1.35403,0.98806 -2.7081,1.93958 -4.09872,2.92765 -0.3295,0.21937 -0.65874,0.43914 -0.95148,0.69533 -0.1461,0.10969 -0.36591,0.25623 -0.40233,0.43914 -0.0733,0.36592 0.29265,0.91489 0.40233,1.28085 0.40234,1.09788 0.8417,2.19577 1.24426,3.3302 1.4638,3.98894 2.92765,7.97789 4.42809,11.93024 1.06124,2.81787 2.12254,5.63544 3.14724,8.49026 0.29265,0.76878 0.58551,1.53699 0.87829,2.34209 0.0733,0.25667 0.14654,0.69533 0.40277,0.84201 0.18296,0.10925 0.43915,0.0728 0.62211,0.0728 h 1.50044 5.70893 15.44344 4.97706 c 0.76847,0 1.6834,0.10969 2.45191,0 0.32906,-0.0728 0.40233,-0.51233 0.47574,-0.76851 0.25623,-0.80511 0.51233,-1.61022 0.76851,-2.41533 1.06125,-3.40338 2.19573,-6.77018 3.29392,-10.17361 1.13448,-3.44002 2.19542,-6.95318 3.3668,-10.39321 0.3295,-0.91488 0.58555,-1.82981 0.87833,-2.74469 0.10925,-0.29264 0.40234,-0.87829 0.29265,-1.17107 -0.0733,-0.18296 -0.25623,-0.29264 -0.40234,-0.36591 l -1.0247,-0.73193 c -1.31717,-0.91488 -2.63491,-1.79317 -3.91576,-2.70805 -4.97674,-3.3668 -9.88057,-6.80682 -14.82129,-10.21025 l -4.31832,-2.96424 c -0.3295,-0.25623 -0.69533,-0.47574 -1.0247,-0.73193 -0.25623,-0.14654 -0.47604,-0.29264 -0.69559,-0.25623 z"
       id="path907"
       inkscape:connector-curvature="0"
       style="display:inline;opacity:1;fill:none;stroke-width:0.30496502"
       inkscape:export-xdpi="300"
       inkscape:export-ydpi="300" />
    <path
       d="m 299.97869,297.10827 c -0.25623,1.02466 -0.62211,2.04936 -0.95148,3.03742 -0.51233,1.53704 -0.98811,3.07407 -1.50044,4.5745 -1.35403,4.17191 -2.63491,8.41704 -4.06212,12.55235 -0.62215,1.82981 -1.17107,3.69616 -1.79322,5.52597 -0.18296,0.47605 -0.3295,0.98811 -0.47574,1.50044 -0.0733,0.1834 -0.14654,0.43915 -0.0733,0.6221 0.14654,0.36592 0.80511,0.65874 1.13448,0.87834 0.95147,0.6587 1.93958,1.35403 2.89106,2.01307 3.62298,2.45192 7.24596,4.94042 10.83235,7.46521 2.78128,1.97618 5.67234,3.87948 8.45362,5.81875 0.69533,0.47605 1.39067,0.95148 2.086,1.42752 0.21937,0.14611 0.51233,0.43884 0.80511,0.36548 0.25623,-0.0728 0.47573,-0.29265 0.65869,-0.40233 l 1.24425,-0.91489 c 1.53703,-1.09819 3.07406,-2.23236 4.61109,-3.3302 4.09872,-2.928 8.19744,-5.89194 12.3328,-8.85618 1.28084,-0.91492 2.52509,-1.82981 3.76935,-2.7084 0.58555,-0.40234 1.17106,-0.95121 1.79321,-1.28054 -0.8417,-2.52514 -1.82981,-4.97705 -2.78128,-7.50246 -1.57362,-4.24513 -3.11065,-8.49021 -4.72087,-12.69875 -0.62215,-1.61022 -1.17107,-3.25702 -1.79321,-4.86724 -0.40234,-1.06129 -0.91489,-2.15917 -1.17107,-3.25702 h -31.2894 z"
       id="path909"
       inkscape:connector-curvature="0"
       style="display:inline;opacity:1;fill:#95cf9b;stroke-width:0.30496502"
       inkscape:export-xdpi="300"
       inkscape:export-ydpi="300" />
    <path
       d="m 412.91335,297.69378 h -21.51833 -6.58727 -2.01277 c -0.29265,0 -0.6587,-0.0733 -0.95147,0.0351 -0.43915,0.10969 -0.58552,1.17107 -0.69534,1.53703 -0.51232,1.57362 -1.06094,3.14725 -1.53703,4.72087 -1.61021,5.30638 -3.43998,10.53957 -5.12337,15.80936 -0.43919,1.35407 -0.84175,2.7081 -1.31748,4.02554 -0.14611,0.40233 -0.58552,1.24429 -0.43884,1.68344 0.1461,0.43914 0.9878,0.80541 1.35376,1.06125 1.31744,0.91492 2.67177,1.8664 3.98895,2.74469 5.0136,3.40343 9.95432,6.8431 14.93107,10.28343 l 4.31831,2.96424 c 0.3295,0.25667 0.69529,0.47605 1.02466,0.73193 0.18296,0.10969 0.36592,0.25623 0.58556,0.21937 0.40233,-0.0728 0.8051,-0.51233 1.09784,-0.73161 0.84174,-0.62211 1.68375,-1.20766 2.52514,-1.79318 3.11065,-2.19577 6.18467,-4.46498 9.25842,-6.66075 2.85447,-2.04936 5.67265,-4.09842 8.52712,-6.11149 0.69502,-0.51233 1.39066,-0.9878 2.08599,-1.50044 0.25623,-0.18296 0.73157,-0.40233 0.76847,-0.73162 0.0351,-0.21981 -0.10925,-0.47604 -0.18296,-0.69533 -0.18339,-0.54892 -0.40277,-1.09784 -0.6221,-1.61021 -0.69533,-1.71999 -1.31744,-3.47627 -1.93958,-5.2332 -1.6465,-4.61105 -3.36684,-9.18555 -5.08683,-13.76 -0.58551,-1.57362 -1.17107,-3.14725 -1.75658,-4.72087 -0.18296,-0.80541 -0.51233,-1.53734 -0.69534,-2.26922 z"
       id="path911"
       inkscape:connector-curvature="0"
       style="display:inline;opacity:1;fill:#f9e559;stroke-width:0.30496502"
       inkscape:export-xdpi="300"
       inkscape:export-ydpi="300" />
    <path
       d="m 393.29801,328.32449 h 9.4051 c 0,-1.09789 0.10924,-2.12255 0.51232,-3.18353 1.06099,-2.85447 3.5498,-4.86754 5.08683,-7.50246 1.68371,-2.85447 1.8664,-6.18467 0.40234,-9.18555 -0.3295,-0.65869 -0.69529,-1.28084 -1.17107,-1.82976 -2.37904,-2.89111 -6.11149,-3.7328 -9.77106,-3.7328 -2.48851,0 -5.05055,0.47573 -7.13619,1.8298 -2.67151,1.71999 -4.1719,4.57446 -4.3549,7.57534 -0.18296,2.41532 0.80541,4.61105 2.23236,6.55063 1.35403,1.8664 3.00083,3.51351 3.98894,5.56257 0.58551,1.24425 0.80511,2.59832 0.80511,3.91576 M 310.59127,308.0504 c -0.51237,-0.40234 -1.0247,-0.76852 -1.57362,-1.17107 -0.29265,-0.21938 -0.62215,-0.47574 -1.02471,-0.43915 -0.6221,0.0733 -1.13447,0.80511 -1.57362,1.17107 -0.51233,0.47574 -1.39062,1.0613 -1.6468,1.6834 -0.29265,0.69533 0.43914,1.28084 0.8417,1.75663 0.25623,0.29264 0.47573,0.6221 0.8051,0.84169 -0.36592,0.47574 -0.6221,1.06125 -0.8051,1.61022 -0.10969,0.25623 -0.14655,0.69533 -0.40234,0.8417 -0.18296,0.14654 -0.47574,0.10969 -0.69529,0.14654 -0.73192,0.0733 -2.12258,-0.0351 -2.34213,0.8417 -0.0733,0.36592 -0.0351,0.76851 -0.0351,1.13448 0,0.69533 0,1.35402 0,2.04936 0,0.40233 0.0351,0.80541 0.43914,1.06129 0.51233,0.29265 1.42721,0.21937 2.01277,0.29265 0.36592,0.0351 0.69533,0.0351 0.8417,0.40233 0.18296,0.51264 0.36592,0.98807 0.58551,1.46411 0.10969,0.21937 0.3295,0.51237 0.25623,0.76852 -0.29265,0.84169 -2.01277,1.6837 -1.39066,2.6715 0.21937,0.3295 0.54896,0.58551 0.84174,0.84201 0.51233,0.47574 0.98807,0.95147 1.50039,1.42725 0.32951,0.32951 0.69534,0.58552 1.17107,0.43915 0.54897,-0.14654 1.09789,-0.73192 1.57363,-1.06129 0.25623,-0.21938 0.51237,-0.43915 0.87829,-0.32951 0.54896,0.18296 1.06129,0.47605 1.64685,0.65874 0.25623,0.0733 0.58551,0.10969 0.69528,0.36592 0.21938,0.47574 0.18296,1.24425 0.25623,1.75658 0.0351,0.3295 0.0733,0.65874 0.32951,0.87829 0.3295,0.29265 0.84169,0.25623 1.24425,0.25623 0.87829,0 1.79317,0.0351 2.67146,0 0.36592,0 0.76852,-0.10925 0.95152,-0.43883 0.29265,-0.47605 0.25623,-1.28085 0.29265,-1.82981 0.0351,-0.21982 0.0351,-0.54923 0.18296,-0.73188 0.18295,-0.18296 0.58555,-0.25623 0.84169,-0.3295 0.54897,-0.18296 1.20766,-0.40234 1.64681,-0.76852 0.47574,0.40233 0.98811,0.76852 1.50044,1.13443 0.36592,0.29265 0.76851,0.58556 1.24425,0.43919 0.29265,-0.0733 0.51233,-0.3295 0.73192,-0.51268 l 1.09789,-1.06094 c 0.40233,-0.40233 1.17107,-0.87833 1.24425,-1.50044 0.14654,-0.98811 -1.31743,-1.53703 -1.57362,-2.37903 -0.0733,-0.21938 0.14654,-0.47574 0.25623,-0.65844 0.25623,-0.51263 0.40233,-1.09815 0.6587,-1.61021 0.14654,-0.3295 0.54896,-0.3295 0.87829,-0.36592 0.58555,-0.0733 1.50044,0 2.01276,-0.3295 0.40234,-0.25623 0.29265,-0.76852 0.29265,-1.13448 0,-0.98806 0.0733,-1.97617 0,-2.96424 -0.0733,-0.95147 -1.57362,-0.8417 -2.30554,-0.91488 -0.32951,-0.0351 -0.73193,-0.0351 -0.8783,-0.36592 -0.25623,-0.51237 -0.40233,-1.09789 -0.69533,-1.61021 -0.10968,-0.18296 -0.29264,-0.43915 -0.21937,-0.65874 0.3295,-0.8417 2.08595,-1.6834 1.42721,-2.7081 -0.21938,-0.36592 -0.58551,-0.62211 -0.87829,-0.91489 -0.51233,-0.47573 -1.02466,-1.02465 -1.57362,-1.4638 -0.32951,-0.25623 -0.69529,-0.43914 -1.09785,-0.29265 -0.54896,0.18296 -1.09788,0.73193 -1.57362,1.09789 -0.18296,0.14654 -0.43914,0.40233 -0.69533,0.3295 -0.58556,-0.14654 -1.17107,-0.54896 -1.75658,-0.73192 -0.25623,-0.0733 -0.58556,-0.10969 -0.69533,-0.36592 -0.25623,-0.47574 -0.21938,-1.28084 -0.25623,-1.82981 -0.0351,-0.29265 -0.0733,-0.6221 -0.29265,-0.80511 -0.29265,-0.25623 -0.73188,-0.18295 -1.09784,-0.18295 h -2.67151 c -0.40233,0 -0.87829,-0.0351 -1.09788,0.36591 -0.29265,0.47574 -0.25623,1.24426 -0.29265,1.75663 -0.0351,0.25623 0,0.6221 -0.18296,0.80511 -0.18296,0.18295 -0.54892,0.21937 -0.76851,0.29264 -0.62211,0.29221 -1.31744,0.47512 -1.75659,0.87768 z"
       id="path913"
       inkscape:connector-curvature="0"
       style="display:inline;opacity:1;fill:#ffffff;stroke-width:0.30496502"
       inkscape:export-xdpi="300"
       inkscape:export-ydpi="300" />
    <path
       d="m 396.59131,324.66491 h 2.01308 c 0.21937,0 0.58551,0.0733 0.76851,-0.0733 0.29265,-0.21937 0.40234,-0.9878 0.51264,-1.35376 0.40233,-1.02466 0.95147,-2.01308 1.53703,-2.96455 0.76851,-1.20766 1.6834,-2.30555 2.52479,-3.47631 0.65874,-0.91488 1.31748,-1.82976 1.61021,-2.89106 0.21938,-0.80511 0.14654,-1.71999 -0.0351,-2.52509 -0.10969,-0.51238 -0.29264,-1.02471 -0.54892,-1.50044 -1.31743,-2.56174 -4.1719,-3.33021 -6.95318,-3.33021 -1.53703,0 -3.07406,0.21982 -4.46504,0.87829 -2.48819,1.17107 -4.13531,4.24509 -3.14689,6.84341 0.54892,1.42721 1.6834,2.63488 2.63487,3.80594 1.50044,1.97587 3.00088,4.17164 3.54949,6.58696 z"
       id="path915"
       inkscape:connector-curvature="0"
       style="display:inline;opacity:1;fill:#f9e559;stroke-width:0.30496502"
       inkscape:export-xdpi="300"
       inkscape:export-ydpi="300" />
    <path
       d="m 315.49531,310.72191 c -1.6468,0.21937 -3.18383,0.8051 -4.3549,1.93958 -2.63487,2.56169 -2.56169,6.91659 0.21937,9.36851 0.87829,0.76851 1.93954,1.31713 3.11061,1.57362 0.73193,0.18296 1.53703,0.25623 2.30555,0.18296 3.36684,-0.40234 6.00171,-2.92765 6.2213,-6.18467 0.25623,-3.80599 -3.47661,-7.39238 -7.50215,-6.88005 z"
       id="path917"
       inkscape:connector-curvature="0"
       style="display:inline;opacity:1;fill:#95cf9b;stroke-width:0.30496502"
       inkscape:export-xdpi="300"
       inkscape:export-ydpi="300" />
    <path
       d="m 291.08592,324.99428 v 58.62645 h 132.22064 v -57.5652 c -0.73192,0.40234 -1.35407,0.91488 -2.01307,1.39066 -1.24399,0.8783 -2.48824,1.79318 -3.69586,2.67147 -4.09876,2.928 -8.1612,5.85534 -12.25961,8.78299 -1.57362,1.09819 -3.11065,2.23236 -4.68427,3.36684 -0.40234,0.29265 -0.80511,0.58551 -1.17107,0.87829 -0.18296,0.10969 -0.36592,0.29309 -0.58552,0.3295 -0.21937,0 -0.43914,-0.18296 -0.58555,-0.29264 -0.43915,-0.29265 -0.87829,-0.62215 -1.31744,-0.91489 -1.6834,-1.17106 -3.36684,-2.30554 -5.05023,-3.4763 -4.17221,-2.92796 -8.34385,-5.74553 -12.55235,-8.63663 -1.42725,-0.98807 -2.85446,-1.97587 -4.31831,-2.96424 -0.69533,-0.47605 -1.39062,-1.06129 -2.15914,-1.46385 0.10969,0.73162 0.51233,1.42726 0.73188,2.12259 0.54897,1.57331 1.13448,3.1103 1.72004,4.64733 1.71999,4.61109 3.43998,9.22214 5.12342,13.83323 0.6221,1.71999 1.24425,3.43998 1.90295,5.16001 0.21937,0.51233 0.40233,1.02466 0.58555,1.53703 0.0733,0.18296 0.1834,0.43915 0.14655,0.62211 -0.0733,0.25623 -0.47605,0.43914 -0.65874,0.58556 -0.6587,0.47604 -1.28085,0.91488 -1.93959,1.39092 -2.4885,1.79322 -5.01329,3.5498 -7.5021,5.37956 -3.44003,2.56174 -6.95323,5.01334 -10.46644,7.50215 -0.91488,0.65874 -1.82976,1.31748 -2.74469,1.97618 -0.25623,0.18296 -0.73157,0.69533 -1.09784,0.69533 -0.1834,0 -0.40278,-0.1834 -0.54897,-0.29264 -0.36591,-0.25667 -0.73188,-0.51264 -1.09815,-0.76883 -1.46384,-1.02465 -2.96424,-2.04936 -4.46468,-3.07401 -4.72086,-3.29366 -9.47832,-6.58727 -14.23578,-9.8077 -1.35403,-0.91488 -2.70806,-1.86636 -4.09872,-2.81757 l -1.09788,-0.76882 c -0.18296,-0.10969 -0.43915,-0.25623 -0.51233,-0.43914 -0.10969,-0.18296 0,-0.36548 0.0351,-0.54893 0.14654,-0.43883 0.29264,-0.91492 0.43914,-1.35376 0.54892,-1.6837 1.13448,-3.3668 1.64681,-5.08709 1.46385,-4.72056 3.03747,-9.40514 4.5745,-14.1257 0.47573,-1.50044 0.98806,-3.00114 1.4638,-4.50158 0.21981,-0.65844 0.47578,-1.31713 0.62215,-1.97587 -0.69533,0.40233 -1.35403,0.91488 -2.01277,1.39066 -1.31743,0.95148 -2.63491,1.90295 -3.91576,2.81788 -3.98894,2.85446 -7.97789,5.70893 -11.93024,8.5634 -1.57362,1.13447 -3.11065,2.26895 -4.68427,3.36679 l -1.09784,0.80511 c -0.14655,0.10969 -0.36592,0.29264 -0.54897,0.29264 -0.18296,0 -0.40233,-0.21937 -0.54892,-0.32906 -0.43914,-0.29308 -0.87829,-0.6221 -1.31743,-0.91488 -1.72004,-1.17138 -3.44003,-2.34245 -5.12343,-3.51351 -4.31831,-3.00084 -8.63662,-5.96512 -12.99153,-8.92937 -1.24425,-0.84169 -2.4885,-1.68339 -3.69616,-2.56142 -0.84139,-0.51294 -1.6465,-1.17133 -2.4882,-1.61078 z"
       id="path919"
       inkscape:connector-curvature="0"
       style="display:inline;opacity:1;fill:none;stroke-width:0.30496502"
       inkscape:export-xdpi="300"
       inkscape:export-ydpi="300" />
    <path
       d="m 341.58811,325.50661 c -0.14654,0.10969 -0.18296,0.3295 -0.21938,0.47605 -0.10968,0.36591 -0.21937,0.69502 -0.3295,1.06098 -0.47573,1.42752 -0.95147,2.85447 -1.39062,4.31827 -1.61021,5.26983 -3.47661,10.46644 -5.08683,15.73653 -0.47573,1.50044 -0.98806,3.00083 -1.46384,4.50127 -0.10969,0.36592 -0.21938,0.69503 -0.3295,1.06099 -0.0351,0.1834 -0.14655,0.36592 -0.0733,0.54892 0.14655,0.29265 0.62215,0.51264 0.87834,0.69533 0.80511,0.58551 1.64681,1.13448 2.45191,1.68371 3.00084,2.08595 6.00171,4.09841 8.96596,6.1844 3.5132,2.45192 7.063,4.90383 10.6128,7.31915 0.8051,0.54923 1.57362,1.09819 2.37873,1.64681 0.43914,0.29264 0.73188,0.62214 1.24425,0.29264 2.34214,-1.57362 4.61105,-3.29361 6.91659,-4.97701 3.65958,-2.6715 7.35574,-5.30611 11.05195,-7.94129 1.5004,-1.09789 3.00083,-2.15918 4.53787,-3.25702 0.36591,-0.25623 0.73192,-0.51237 1.09819,-0.80511 0.1461,-0.10969 0.36548,-0.25667 0.40233,-0.43914 0.0733,-0.47578 -0.40233,-1.20766 -0.54896,-1.68345 -0.51233,-1.5007 -1.09784,-2.96454 -1.64681,-4.46498 -1.93928,-5.19661 -3.84253,-10.39321 -5.78212,-15.58982 -0.58555,-1.57362 -1.13447,-3.14693 -1.75662,-4.72055 -0.18296,-0.47605 -0.3295,-1.42752 -0.76852,-1.68371 -0.3295,-0.18296 -0.98806,-0.0728 -1.39092,-0.0728 h -3.5498 -13.1379 -9.58779 -2.45192 c -0.3295,0.0351 -0.8051,-0.0351 -1.0247,0.10969 z"
       id="path921"
       inkscape:connector-curvature="0"
       style="display:inline;opacity:1;fill:#ef7227;stroke-width:0.30496502"
       inkscape:export-xdpi="300"
       inkscape:export-ydpi="300" />
    <path
       d="m 393.1516,329.31255 c 0,0.91493 -0.0733,1.82981 -0.0733,2.74469 0,0.3295 -0.10969,0.8417 0.10968,1.09789 0.3295,0.40233 1.09789,0.65874 1.57332,0.8417 1.8664,0.73192 4.09872,0.73192 6.00202,0.14654 0.51232,-0.18296 1.02439,-0.36592 1.50043,-0.62215 0.18296,-0.10969 0.40234,-0.18296 0.51233,-0.36592 0.1834,-0.25623 0.0733,-0.8051 0.0733,-1.09784 v -2.74469 h -9.69787 m -34.32687,8.5634 c -0.8417,0.21938 -1.6465,0.73162 -2.45191,1.09789 l -4.68428,2.23236 c -0.76851,0.36592 -1.57362,0.8417 -2.37873,1.13443 -0.40277,0.14654 -0.98806,-0.40233 -1.35403,-0.54892 -0.76851,-0.3295 -1.53703,-0.40277 -2.37872,-0.36592 -3.47662,0.0733 -5.4162,3.91576 -3.95236,6.69705 1.02471,1.93958 3.40343,2.85446 5.56257,2.34213 0.47574,-0.10925 0.91488,-0.32906 1.31744,-0.54896 0.21937,-0.10925 0.43914,-0.3295 0.69533,-0.29265 0.76851,0.1834 1.57362,0.73192 2.26895,1.06129 l 4.68423,2.23206 c 0.84174,0.40277 1.68375,0.95147 2.59863,1.17133 -0.10968,0.58556 0,1.28058 0.21938,1.82981 1.17107,3.07406 5.41615,4.06182 7.94129,1.82981 2.26861,-2.01308 1.903,-5.85534 -0.80541,-7.31919 -1.20766,-0.6587 -2.67151,-0.84201 -3.98864,-0.43915 -0.40277,0.10969 -0.76882,0.29265 -1.09819,0.51233 -0.21937,0.10969 -0.40233,0.29265 -0.65874,0.25667 -0.29265,-0.0733 -0.6221,-0.25667 -0.87829,-0.40233 l -1.93928,-0.91489 c -2.23231,-1.06129 -4.46498,-2.26895 -6.73389,-3.18383 0.0351,-0.18296 0.0351,-0.25623 0,-0.43884 2.3055,-0.91488 4.50127,-2.12254 6.73389,-3.18384 l 1.93928,-0.91488 c 0.25623,-0.1461 0.58556,-0.3295 0.87829,-0.40233 0.29265,-0.0351 0.51268,0.14654 0.73192,0.29308 0.32951,0.18296 0.65874,0.32907 1.02471,0.43884 1.24394,0.36592 2.74469,0.25623 3.84253,-0.36592 2.81787,-1.57362 3.29365,-5.45279 0.80511,-7.53874 -2.63488,-2.19573 -7.02637,-0.98806 -7.90466,2.26896 -0.0733,0.43831 -0.14655,0.95085 -0.0351,1.46318 z"
       id="path923"
       inkscape:connector-curvature="0"
       style="display:inline;opacity:1;fill:#ffffff;fill-opacity:1;stroke-width:0.30496502"
       inkscape:export-xdpi="300"
       inkscape:export-ydpi="300" />
    <g
       aria-label="Centre for Telepsychiatry"
       style="font-style:normal;font-variant:normal;font-weight:normal;font-stretch:normal;font-size:20.12158203px;line-height:1.25;font-family:Questrial;-inkscape-font-specification:Questrial;letter-spacing:0px;word-spacing:0px;display:inline;fill:#000000;fill-opacity:1;stroke:none;stroke-width:1.16086042"
       id="text1633"
       inkscape:export-xdpi="300"
       inkscape:export-ydpi="300">
      <path
         d="m 295.80493,385.06266 q 0.84619,0 1.47785,-0.42905 0.64358,-0.42906 0.95346,-1.15607 h 0.94153 q -0.3933,1.12031 -1.29908,1.76389 -0.96537,0.69126 -2.27637,0.69126 -1.72813,0 -2.80077,-1.1799 -1.01304,-1.13223 -1.01304,-2.86036 0,-1.72814 1.01304,-2.86036 1.07264,-1.1799 2.80077,-1.1799 1.311,0 2.27637,0.69125 0.90578,0.64358 1.29908,1.76389 h -0.94153 q -0.30988,-0.72701 -0.95346,-1.15606 -0.63166,-0.42905 -1.47785,-0.42905 -0.84619,0 -1.40634,0.25028 -0.56016,0.23836 -0.94154,0.66741 -0.77468,0.87003 -0.77468,2.25254 0,1.38251 0.77468,2.25253 0.81044,0.9177 2.34788,0.9177 z"
         style="font-size:11.91816711px;stroke-width:1.16086042"
         id="path973"
         inkscape:connector-curvature="0" />
      <path
         d="m 302.97315,385.12225 q 1.20373,0 1.72813,-1.00112 h 0.97729 q -0.30987,0.81043 -0.9892,1.31099 -0.66742,0.50057 -1.72814,0.50057 -1.34675,0 -2.19294,-0.89387 -0.82236,-0.87002 -0.82236,-2.18102 0,-1.32292 0.7866,-2.18103 0.83428,-0.89386 2.16911,-0.89386 1.33483,0 2.16911,0.89386 0.7866,0.85811 0.7866,2.18103 v 0.35754 h -4.99372 q 0.0953,0.82236 0.6555,1.35868 0.57207,0.54823 1.45402,0.54823 z m -0.0715,-4.5289 q -0.82235,0 -1.38251,0.51248 -0.5244,0.48864 -0.64358,1.27524 h 4.05218 q -0.11918,-0.7866 -0.64358,-1.27524 -0.56016,-0.51248 -1.38251,-0.51248 z"
         style="font-size:11.91816711px;stroke-width:1.16086042"
         id="path975"
         inkscape:connector-curvature="0" />
      <path
         d="m 307.8434,379.87826 v 0.92961 q 0.32179,-0.42905 0.7866,-0.727 0.4648,-0.29796 1.06071,-0.29796 0.59591,0 1.02496,0.16686 0.42906,0.16685 0.75085,0.50056 0.73893,0.72701 0.73893,1.91882 v 3.46819 h -0.89387 v -3.44435 q 0,-0.82235 -0.46481,-1.311 -0.4648,-0.48864 -1.20373,-0.48864 -0.75084,0 -1.27524,0.50056 -0.5244,0.51248 -0.5244,1.311 v 3.43243 h -0.89387 v -5.95908 z"
         style="font-size:11.91816711px;stroke-width:1.16086042"
         id="path977"
         inkscape:connector-curvature="0" />
      <path
         d="m 314.20397,385.83734 v -5.17248 h -1.21565 v -0.7866 h 1.21565 v -2.13335 h 0.89387 v 2.13335 h 1.37058 v 0.7866 h -1.37058 v 5.17248 z"
         style="font-size:11.91816711px;stroke-width:1.16086042"
         id="path979"
         inkscape:connector-curvature="0" />
      <path
         d="m 320.59416,379.78291 v 0.89386 h -0.10726 q -0.96538,0 -1.5732,0.77469 -0.57207,0.73892 -0.57207,1.76388 v 2.622 h -0.89387 v -5.95908 h 0.89387 v 1.46593 q 0.28603,-0.92961 1.23949,-1.37059 0.39329,-0.19069 0.95345,-0.19069 z"
         style="font-size:11.91816711px;stroke-width:1.16086042"
         id="path981"
         inkscape:connector-curvature="0" />
      <path
         d="m 324.07436,385.12225 q 1.20373,0 1.72813,-1.00112 h 0.97729 q -0.30987,0.81043 -0.98921,1.31099 -0.66741,0.50057 -1.72813,0.50057 -1.34675,0 -2.19294,-0.89387 -0.82236,-0.87002 -0.82236,-2.18102 0,-1.32292 0.7866,-2.18103 0.83427,-0.89386 2.16911,-0.89386 1.33483,0 2.16911,0.89386 0.78659,0.85811 0.78659,2.18103 v 0.35754 h -4.99371 q 0.0953,0.82236 0.6555,1.35868 0.57207,0.54823 1.45402,0.54823 z m -0.0715,-4.5289 q -0.82235,0 -1.38251,0.51248 -0.5244,0.48864 -0.64358,1.27524 h 4.05218 q -0.11918,-0.7866 -0.64358,-1.27524 -0.56016,-0.51248 -1.38251,-0.51248 z"
         style="font-size:11.91816711px;stroke-width:1.16086042"
         id="path983"
         inkscape:connector-curvature="0" />
      <path
         d="m 333.16205,378.24547 q -0.63166,0 -0.95345,0.28603 -0.30987,0.27412 -0.30987,0.89387 v 0.45289 h 1.3825 v 0.7866 h -1.3825 v 5.17248 h -0.89387 v -5.17248 h -1.02496 v -0.7866 h 1.02496 v -0.5244 q 0,-0.97729 0.584,-1.46594 0.58399,-0.48864 1.62087,-0.48864 h 0.0715 v 0.84619 z"
         style="font-size:11.91816711px;stroke-width:1.16086042"
         id="path985"
         inkscape:connector-curvature="0" />
      <path
         d="m 336.73573,379.78291 q 1.33484,0 2.16911,0.89386 0.7866,0.85811 0.7866,2.18103 0,1.32292 -0.7866,2.18102 -0.83427,0.89387 -2.16911,0.89387 -1.33483,0 -2.1691,-0.89387 -0.7866,-0.8581 -0.7866,-2.18102 0,-1.32292 0.7866,-2.18103 0.83427,-0.89386 2.1691,-0.89386 z m 0,5.33934 q 0.96537,0 1.52553,-0.66742 0.53632,-0.63166 0.53632,-1.59703 0,-0.96537 -0.53632,-1.59703 -0.56016,-0.66742 -1.52553,-0.66742 -0.96537,0 -1.52552,0.66742 -0.53632,0.63166 -0.53632,1.59703 0,0.96537 0.53632,1.59703 0.56015,0.66742 1.52552,0.66742 z"
         style="font-size:11.91816711px;stroke-width:1.16086042"
         id="path987"
         inkscape:connector-curvature="0" />
      <path
         d="m 344.03477,379.78291 v 0.89386 h -0.10726 q -0.96537,0 -1.5732,0.77469 -0.57207,0.73892 -0.57207,1.76388 v 2.622 h -0.89386 v -5.95908 h 0.89386 v 1.46593 q 0.28604,-0.92961 1.23949,-1.37059 0.3933,-0.19069 0.95345,-0.19069 z"
         style="font-size:11.91816711px;stroke-width:1.16086042"
         id="path989"
         inkscape:connector-curvature="0" />
      <path
         d="m 353.33802,378.80562 h -2.7531 v 7.03172 h -0.89386 v -7.03172 h -2.7531 v -0.85811 h 6.40006 z"
         style="font-size:11.91816711px;stroke-width:1.16086042"
         id="path991"
         inkscape:connector-curvature="0" />
      <path
         d="m 355.7669,385.12225 q 1.20374,0 1.72814,-1.00112 h 0.97729 q -0.30987,0.81043 -0.98921,1.31099 -0.66742,0.50057 -1.72813,0.50057 -1.34676,0 -2.19295,-0.89387 -0.82235,-0.87002 -0.82235,-2.18102 0,-1.32292 0.7866,-2.18103 0.83427,-0.89386 2.16911,-0.89386 1.33483,0 2.1691,0.89386 0.7866,0.85811 0.7866,2.18103 v 0.35754 h -4.99371 q 0.0953,0.82236 0.6555,1.35868 0.57207,0.54823 1.45401,0.54823 z m -0.0715,-4.5289 q -0.82236,0 -1.38251,0.51248 -0.5244,0.48864 -0.64358,1.27524 h 4.05217 q -0.11918,-0.7866 -0.64358,-1.27524 -0.56015,-0.51248 -1.3825,-0.51248 z"
         style="font-size:11.91816711px;stroke-width:1.16086042"
         id="path993"
         inkscape:connector-curvature="0" />
      <path
         d="m 360.63715,385.83734 h -0.89386 v -8.34272 h 0.89386 z"
         style="font-size:11.91816711px;stroke-width:1.16086042"
         id="path995"
         inkscape:connector-curvature="0" />
      <path
         d="m 364.8452,385.12225 q 1.20373,0 1.72813,-1.00112 h 0.97729 q -0.30987,0.81043 -0.98921,1.31099 -0.66741,0.50057 -1.72813,0.50057 -1.34675,0 -2.19294,-0.89387 -0.82236,-0.87002 -0.82236,-2.18102 0,-1.32292 0.7866,-2.18103 0.83427,-0.89386 2.16911,-0.89386 1.33483,0 2.16911,0.89386 0.78659,0.85811 0.78659,2.18103 v 0.35754 h -4.99371 q 0.0953,0.82236 0.6555,1.35868 0.57207,0.54823 1.45402,0.54823 z m -0.0715,-4.5289 q -0.82235,0 -1.38251,0.51248 -0.5244,0.48864 -0.64358,1.27524 h 4.05218 q -0.11918,-0.7866 -0.64358,-1.27524 -0.56016,-0.51248 -1.38251,-0.51248 z"
         style="font-size:11.91816711px;stroke-width:1.16086042"
         id="path997"
         inkscape:connector-curvature="0" />
      <path
         d="m 369.71544,380.83171 q 0.71509,-1.0488 2.13335,-1.0488 1.28717,0 2.08568,0.89386 0.79852,0.88195 0.79852,2.18103 0,1.29908 -0.79852,2.18102 -0.79851,0.89387 -2.14527,0.89387 -1.34675,0 -2.07376,-1.06072 v 3.32517 h -0.89386 v -8.31888 h 0.89386 z m 2.01417,-0.23836 q -0.96537,0 -1.52552,0.66742 -0.53632,0.63166 -0.53632,1.59703 0,0.96537 0.53632,1.59703 0.56015,0.66742 1.52552,0.66742 0.95345,0 1.54936,-0.66742 0.56016,-0.63166 0.56016,-1.59703 0,-0.96537 -0.56016,-1.59703 -0.59591,-0.66742 -1.54936,-0.66742 z"
         style="font-size:11.91816711px;stroke-width:1.16086042"
         id="path999"
         inkscape:connector-curvature="0" />
      <path
         d="m 379.40194,381.47529 q -0.11919,-0.92961 -1.50169,-0.92961 -1.37059,0 -1.37059,0.8581 0,0.35755 0.28603,0.54824 0.29796,0.17877 0.73893,0.29795 0.44097,0.11918 0.95345,0.22645 0.5244,0.0953 0.96537,0.28603 0.44098,0.17878 0.72701,0.50057 0.29796,0.32179 0.29796,0.88194 0,0.87003 -0.6555,1.33484 -0.6555,0.45289 -1.77581,0.45289 -1.19182,0 -1.89499,-0.59591 -0.64358,-0.5244 -0.69125,-1.37059 h 0.92962 q 0.0834,0.82235 0.92961,1.10839 0.30988,0.0953 0.60783,0.0953 0.30987,0 0.57207,-0.0358 0.2622,-0.0358 0.51248,-0.1311 0.57207,-0.22645 0.57207,-0.77468 0,-0.36946 -0.29795,-0.56016 -0.28604,-0.2026 -0.72701,-0.32179 -0.44097,-0.1311 -0.96537,-0.22644 -0.51248,-0.10726 -0.95345,-0.28604 -0.44097,-0.17877 -0.73893,-0.48864 -0.28603,-0.30987 -0.28603,-0.85811 0,-0.81044 0.58399,-1.25141 0.5959,-0.45289 1.75197,-0.45289 1.09647,0 1.72813,0.5244 0.5244,0.44097 0.60783,1.16798 z"
         style="font-size:11.91816711px;stroke-width:1.16086042"
         id="path1001"
         inkscape:connector-curvature="0" />
      <path
         d="m 383.23269,388.19714 h -0.96537 l 1.08455,-2.44323 -2.4313,-5.87565 h 0.9892 l 1.91883,4.88645 1.95458,-4.88645 h 0.97729 z"
         style="font-size:11.91816711px;stroke-width:1.16086042"
         id="path1003"
         inkscape:connector-curvature="0" />
      <path
         d="m 390.22009,385.12225 q 0.57207,0 1.01305,-0.32179 0.44097,-0.32179 0.64358,-0.83427 h 0.96537 q -0.27412,0.88194 -1.00113,1.41826 -0.76276,0.54824 -1.81156,0.54824 -1.311,0 -2.13335,-0.89387 -0.79852,-0.87002 -0.79852,-2.18102 0,-1.311 0.79852,-2.18103 0.82235,-0.89386 2.13335,-0.89386 1.0488,0 1.81156,0.54824 0.72701,0.53632 1.00113,1.41826 h -0.96537 q -0.20261,-0.51248 -0.64358,-0.83427 -0.44098,-0.32179 -1.01305,-0.32179 -0.57207,0 -0.97729,0.17877 -0.3933,0.17877 -0.66742,0.48865 -0.58399,0.64358 -0.58399,1.59703 0,0.95345 0.58399,1.59703 0.59591,0.66742 1.64471,0.66742 z"
         style="font-size:11.91816711px;stroke-width:1.16086042"
         id="path1005"
         inkscape:connector-curvature="0" />
      <path
         d="m 394.85533,377.49462 v 3.31325 q 0.32179,-0.42905 0.7866,-0.727 0.4648,-0.29796 1.06071,-0.29796 0.59591,0 1.02496,0.16686 0.42906,0.16685 0.75085,0.50056 0.73893,0.72701 0.73893,1.91882 v 3.46819 h -0.89387 v -3.44435 q 0,-0.82235 -0.46481,-1.311 -0.4648,-0.48864 -1.20373,-0.48864 -0.75085,0 -1.27524,0.50056 -0.5244,0.51248 -0.5244,1.311 v 3.43243 h -0.89387 v -8.34272 z"
         style="font-size:11.91816711px;stroke-width:1.16086042"
         id="path1007"
         inkscape:connector-curvature="0" />
      <path
         d="m 400.71199,379.87826 h 0.89386 v 5.95908 h -0.89386 z m 0.92962,-2.16911 v 1.16798 h -0.96537 v -1.16798 z"
         style="font-size:11.91816711px;stroke-width:1.16086042"
         id="path1009"
         inkscape:connector-curvature="0" />
      <path
         d="m 407.80423,384.88389 q -0.71509,1.0488 -2.13335,1.0488 -1.28717,0 -2.0976,-0.89387 -0.7866,-0.88194 -0.7866,-2.18102 0,-1.29908 0.7866,-2.18103 0.81043,-0.89386 2.15719,-0.89386 1.34675,0 2.07376,1.06072 v -0.96537 h 0.89386 v 5.95908 h -0.89386 z m -2.01417,0.23836 q 0.96537,0 1.52552,-0.66742 0.53632,-0.63166 0.53632,-1.59703 0,-0.96537 -0.53632,-1.59703 -0.56015,-0.66742 -1.52552,-0.66742 -0.95346,0 -1.54936,0.66742 -0.56016,0.63166 -0.56016,1.59703 0,0.96537 0.56016,1.59703 0.5959,0.66742 1.54936,0.66742 z"
         style="font-size:11.91816711px;stroke-width:1.16086042"
         id="path1011"
         inkscape:connector-curvature="0" />
      <path
         d="m 410.89942,385.83734 v -5.17248 h -1.21566 v -0.7866 h 1.21566 v -2.13335 h 0.89386 v 2.13335 h 1.37059 v 0.7866 h -1.37059 v 5.17248 z"
         style="font-size:11.91816711px;stroke-width:1.16086042"
         id="path1013"
         inkscape:connector-curvature="0" />
      <path
         d="m 417.2896,379.78291 v 0.89386 h -0.10726 q -0.96538,0 -1.5732,0.77469 -0.57207,0.73892 -0.57207,1.76388 v 2.622 h -0.89387 v -5.95908 h 0.89387 v 1.46593 q 0.28603,-0.92961 1.23949,-1.37059 0.39329,-0.19069 0.95345,-0.19069 z"
         style="font-size:11.91816711px;stroke-width:1.16086042"
         id="path1015"
         inkscape:connector-curvature="0" />
      <path
         d="m 419.84847,388.19714 h -0.96537 l 1.08455,-2.44323 -2.43131,-5.87565 h 0.98921 l 1.91883,4.88645 1.95458,-4.88645 h 0.97728 z"
         style="font-size:11.91816711px;stroke-width:1.16086042"
         id="path1017"
         inkscape:connector-curvature="0" />
    </g>
  </g>
</svg>
