<?xml version="1.0" encoding="UTF-8" standalone="no"?>
<!-- Created with Inkscape (http://www.inkscape.org/) -->

<svg
   xmlns:dc="http://purl.org/dc/elements/1.1/"
   xmlns:cc="http://creativecommons.org/ns#"
   xmlns:rdf="http://www.w3.org/1999/02/22-rdf-syntax-ns#"
   xmlns:svg="http://www.w3.org/2000/svg"
   xmlns="http://www.w3.org/2000/svg"
   xmlns:sodipodi="http://sodipodi.sourceforge.net/DTD/sodipodi-0.dtd"
   xmlns:inkscape="http://www.inkscape.org/namespaces/inkscape"
   version="1.1"
   id="svg2"
   xml:space="preserve"
   width="1364.053"
   height="644.62134"
   viewBox="0 0 1364.053 644.62134"
   sodipodi:docname="central_denmark_region.svg"
   inkscape:version="0.92.3 (2405546, 2018-03-11)"><metadata
     id="metadata8"><rdf:RDF><cc:Work
         rdf:about=""><dc:format>image/svg+xml</dc:format><dc:type
           rdf:resource="http://purl.org/dc/dcmitype/StillImage" /><dc:title></dc:title></cc:Work></rdf:RDF></metadata><defs
     id="defs6"><clipPath
       clipPathUnits="userSpaceOnUse"
       id="clipPath18"><path
         d="M 0,870.236 H 1218.9 V 0 H 0 Z"
         id="path16"
         inkscape:connector-curvature="0" /></clipPath></defs><sodipodi:namedview
     pagecolor="#ffffff"
     bordercolor="#666666"
     borderopacity="1"
     objecttolerance="10"
     gridtolerance="10"
     guidetolerance="10"
     inkscape:pageopacity="0"
     inkscape:pageshadow="2"
     inkscape:window-width="1920"
     inkscape:window-height="950"
     id="namedview4"
     showgrid="false"
     fit-margin-top="0"
     fit-margin-left="0"
     fit-margin-right="0"
     fit-margin-bottom="0"
     inkscape:zoom="0.28764128"
     inkscape:cx="-378.23214"
     inkscape:cy="119.08174"
     inkscape:window-x="0"
     inkscape:window-y="27"
     inkscape:window-maximized="1"
     inkscape:current-layer="g10" /><g
     id="g10"
     inkscape:groupmode="layer"
     inkscape:label="engelsk_midt_logo_01_cmyk"
     transform="matrix(1.3333333,0,0,-1.3333333,-148.01188,947.57533)"><g
       id="g12"><g
         id="g14"
         clip-path="url(#clipPath18)"><g
           id="g20"
           transform="translate(264.063,626.0557)"><path
             d="m 0,0 c -13.813,0 -27.359,-0.054 -40.317,-0.151 -40.796,-0.312 -86.982,-0.841 -106.882,-3.426 -3.394,-0.404 -4.64,-3.051 -4.919,-5.885 -0.282,-2.864 -0.967,-15.353 -0.935,-18.188 0.062,-2.834 1.744,-5.293 4.828,-5.854 2.584,-0.498 38.709,-7.225 38.709,-29.959 v -184.428 c 0,-2.709 1.06,-5.759 5.667,-5.947 9.004,-0.422 19.779,-0.668 30.382,-0.668 9.72,0 19.295,0.205 27.233,0.668 4.641,0.248 5.917,3.332 5.917,6.043 v 189.253 c 0,3.487 2.679,5.012 5.793,5.418 1.895,0.25 9.136,0.491 18.213,0.491 6.737,0 14.481,-0.133 21.804,-0.491 17.41,-0.873 25.133,-7.91 25.133,-30.3 v -164.498 c 0,-2.678 0.683,-5.668 5.948,-5.916 9.899,-0.447 19.291,-0.689 28.955,-0.689 9.189,0 18.617,0.218 28.97,0.689 5.013,0.248 5.887,3.238 5.887,5.916 v 189.099 c 0,3.739 2.864,5.293 6.04,5.699 2.364,0.314 5.766,0.479 11.241,0.479 5.344,0 12.662,-0.157 22.923,-0.479 20.959,-0.686 32.201,-6.851 32.201,-31.641 v -129.242 c 0,-25.972 2.305,-39.177 31.703,-40.141 6.969,-0.239 12.754,-0.325 17.5,-0.325 10.229,0 15.647,0.403 17.754,0.573 2.989,0.281 5.169,2.336 5.419,5.793 0.216,3.427 0,88.537 0,143.91 0,88.756 -2.243,97.133 -104.982,101.743 C 100.034,-0.662 48.429,0 0,0"
             style="fill:#92082e;fill-opacity:1;fill-rule:nonzero;stroke:none"
             id="path22"
             inkscape:connector-curvature="0" /></g><g
           id="g24"
           transform="translate(584.9873,623.0049)"><path
             d="m 0,0 c -18.853,0 -37.002,-0.563 -48.353,-1.716 -3.955,-0.559 -4.67,-3.271 -4.889,-6.228 -0.248,-2.927 -0.965,-15.104 -0.872,-17.875 0.062,-2.524 1.743,-5.077 4.797,-5.856 2.583,-0.654 38.71,-8.316 38.71,-30.771 V -244.9 c 0,-2.709 1.68,-5.45 5.855,-5.887 9.853,-0.602 19.946,-0.899 30.154,-0.899 10.344,0 20.803,0.303 31.258,0.899 4.017,0.219 5.418,3.178 5.418,5.887 V -7.944 c 0,2.71 -1.494,5.324 -6.259,6.011 C 41.527,-0.656 20.354,0 0,0"
             style="fill:#92082e;fill-opacity:1;fill-rule:nonzero;stroke:none"
             id="path26"
             inkscape:connector-curvature="0" /></g><g
           id="g28"
           transform="translate(1127.8242,400.4834)"><path
             d="m 0,0 c -9.266,2.443 -15.779,2.266 -38.491,7.727 -27.297,6.567 -26.284,11.299 -27.507,39.946 -0.903,21.157 -1.852,80.942 -0.802,111.317 0.85,24.57 43.987,28.952 47.075,29.78 3.089,0.828 4.567,2.66 4.821,5.755 0.253,3.096 -0.63,15.803 -1.073,18.888 -0.442,3.086 -2.372,4.532 -4.904,4.903 -8.71,1.271 -31.551,2.734 -44.391,3.505 -4.42,0.263 -6.407,3.23 -7.113,5.828 -0.926,3.397 -2.7,14.008 -5.487,30.799 -2.289,13.784 -1.537,19.541 -18.738,22.971 -39.756,7.928 -39.355,4.184 -39.602,-8.039 -0.245,-12.223 -1.81,-198.064 -1.81,-228.472 0,-56.203 10.546,-74.998 72.428,-74.998 13.36,0 42.379,1.092 56.744,2.227 13.686,1.082 13.477,1.355 14.7,15.691 C 6.616,-3.172 6.846,-1.809 0,0 m -271.257,25.534 c -0.026,-8.57 -6.205,-8.98 -11.5,-9.627 -5.295,-0.646 -7.605,-0.56 -25.488,-0.431 -33.647,0 -58.181,8.591 -58.181,80.809 0,72.216 16.976,81.775 57.094,81.775 0,0 16.331,0.096 26.701,-1.135 6.107,-0.804 10.632,-2.376 10.881,-8.921 1.229,-32.139 0.655,-89.52 0.493,-142.47 m 112.408,-21.21 c -23.654,7.304 -38.389,4.2 -39.813,25.902 -1.422,21.698 -0.493,221.432 -2.007,252.366 -0.836,17.065 2.518,17.828 -34.434,24.557 -38.327,6.977 -34.217,1.5 -34.845,-11.535 -0.687,-14.256 -1.026,-56.114 -1.508,-63.887 -0.349,-5.616 -1.893,-7.46 -7.104,-7.238 -17.847,0.771 -38.392,1.298 -53.964,1.298 -43.164,0 -104.134,-14.361 -104.134,-132.877 0,-121.976 71.95,-120.24 99.558,-122.06 19.165,-1.266 112.638,-2.481 174.55,0.445 4.073,0.437 5.317,2.547 6.135,5.965 0.817,3.416 1.684,18.81 1.599,21.502 -0.084,2.693 -0.785,4.562 -4.033,5.562"
             style="fill:#92082e;fill-opacity:1;fill-rule:nonzero;stroke:none"
             id="path30"
             inkscape:connector-curvature="0" /></g><g
           id="g32"
           transform="translate(187.9517,246.1445)"><path
             d="m 0,0 h -14.47 c -14.378,0 -20.112,7.645 -20.112,21.567 v 22.024 c 0,13.923 5.734,21.567 20.112,21.567 H 0 c 3.003,0 8.008,-0.364 10.375,-2.366 v -4.368 h -25.208 c -10.284,0 -12.013,-6.279 -12.013,-15.197 V 21.932 c 0,-8.918 1.729,-15.198 12.013,-15.198 H 10.375 V 2.366 C 8.008,0.363 3.003,0 0,0"
             style="fill:#785d47;fill-opacity:1;fill-rule:nonzero;stroke:none"
             id="path34"
             inkscape:connector-curvature="0" /></g><g
           id="g36"
           transform="translate(239.0928,281.7266)"><path
             d="m 0,0 c 0,6.461 -3.367,7.917 -9.374,7.917 h -6.461 c -7.007,0 -9.464,-3.094 -9.464,-8.918 V -6.644 H 0 Z m 0.728,-12.104 h -26.027 v -8.554 c 0,-5.733 2.275,-8.737 9.282,-8.737 h 21.75 v -3.458 c -1.911,-1.637 -5.642,-2.729 -9.555,-2.729 h -12.377 c -8.463,0 -16.381,3.913 -16.381,15.379 v 17.655 c 0,13.286 8.009,16.472 18.292,16.472 h 4.186 c 9.192,0 17.2,-2.821 17.2,-15.471 v -9.465 z"
             style="fill:#785d47;fill-opacity:1;fill-rule:nonzero;stroke:none"
             id="path38"
             inkscape:connector-curvature="0" /></g><g
           id="g40"
           transform="translate(288.4863,247.2363)"><path
             d="m 0,0 v 36.947 c 0,3.913 -3.185,4.914 -6.097,4.914 h -7.371 c -5.006,0 -9.101,-0.818 -10.921,-1.365 V 0 h -7.28 v 47.322 h 6.916 l 0.273,-3.276 c 3.276,3.094 8.282,4.368 12.559,4.368 h 7.28 c 6.097,0 11.921,-2.64 11.921,-10.647 L 7.28,0 Z"
             style="fill:#785d47;fill-opacity:1;fill-rule:nonzero;stroke:none"
             id="path42"
             inkscape:connector-curvature="0" /></g><g
           id="g44"
           transform="translate(326.4683,246.1445)"><path
             d="m 0,0 c -8.099,0 -13.014,2.184 -13.014,10.01 v 31.67 h -8.372 v 5.46 h 8.372 v 13.195 l 7.281,1.001 V 47.14 h 16.38 V 41.68 H -5.733 V 11.193 c 0,-2.275 0.182,-5.278 4.459,-5.278 H 10.647 V 1.82 C 8.463,0.637 3.185,0 0,0"
             style="fill:#785d47;fill-opacity:1;fill-rule:nonzero;stroke:none"
             id="path46"
             inkscape:connector-curvature="0" /></g><g
           id="g48"
           transform="translate(367.4634,288.7344)"><path
             d="m 0,0 c -7.007,0 -11.285,-1.184 -14.378,-2.458 v -39.04 h -7.281 V 5.824 h 6.643 l 0.455,-3.914 c 3.186,2.549 9.374,4.642 13.742,4.642 1.274,0 4.641,-0.091 6.916,-0.364 L 6.097,0 Z"
             style="fill:#785d47;fill-opacity:1;fill-rule:nonzero;stroke:none"
             id="path50"
             inkscape:connector-curvature="0" /></g><g
           id="g52"
           transform="translate(410.3154,269.623)"><path
             d="m 0,0 h -17.109 c -4.186,0 -6.734,-1.456 -6.734,-6.097 v -5.733 c 0,-4.096 3.003,-5.643 6.461,-5.643 h 9.647 c 3.913,0 7.735,1.73 7.735,7.736 z m 1.82,-22.387 -0.546,4.55 H 1.001 c -1.547,-3.003 -4.732,-5.642 -10.466,-5.642 h -9.464 c -7.007,0 -12.195,4.095 -12.195,10.739 v 5.46 c 0,9.009 5.279,12.74 13.469,12.74 L 0,5.46 v 8.009 c 0,5.095 -2.821,6.006 -7.554,6.006 h -20.384 v 4.459 c 2.639,1.638 8.008,2.093 11.193,2.093 H -6.644 C 0.91,26.027 7.28,23.388 7.28,14.105 V -6.734 c 0,-7.281 0.364,-11.011 0.91,-15.653 z"
             style="fill:#785d47;fill-opacity:1;fill-rule:nonzero;stroke:none"
             id="path54"
             inkscape:connector-curvature="0" /></g><path
           d="m 429.906,313.851 h 7.28 v -66.614 h -7.28 z"
           style="fill:#785d47;fill-opacity:1;fill-rule:nonzero;stroke:none"
           id="path56"
           inkscape:connector-curvature="0" /><g
           id="g58"
           transform="translate(513.2612,289.6436)"><path
             d="m 0,0 c 0,10.102 -4.186,14.652 -13.65,14.652 h -19.111 v -51.144 h 19.201 c 9.92,0 13.56,4.368 13.56,14.651 z m -13.014,-42.407 h -27.392 v 62.974 h 27.574 c 13.105,0 20.476,-5.733 20.476,-19.748 v -22.932 c 0,-14.834 -7.462,-20.294 -20.658,-20.294"
             style="fill:#36220f;fill-opacity:1;fill-rule:nonzero;stroke:none"
             id="path60"
             inkscape:connector-curvature="0" /></g><g
           id="g62"
           transform="translate(563.6465,281.7266)"><path
             d="m 0,0 c 0,6.461 -3.367,7.917 -9.373,7.917 h -6.461 c -7.008,0 -9.465,-3.094 -9.465,-8.918 V -6.644 H 0 Z m 0.729,-12.104 h -26.028 v -8.554 c 0,-5.733 2.276,-8.737 9.282,-8.737 h 21.75 v -3.458 c -1.911,-1.637 -5.642,-2.729 -9.555,-2.729 h -12.376 c -8.464,0 -16.381,3.913 -16.381,15.379 v 17.655 c 0,13.286 8.008,16.472 18.292,16.472 h 4.186 c 9.191,0 17.2,-2.821 17.2,-15.471 v -9.465 z"
             style="fill:#36220f;fill-opacity:1;fill-rule:nonzero;stroke:none"
             id="path64"
             inkscape:connector-curvature="0" /></g><g
           id="g66"
           transform="translate(613.041,247.2363)"><path
             d="m 0,0 v 36.947 c 0,3.913 -3.186,4.914 -6.098,4.914 h -7.371 c -5.005,0 -9.1,-0.818 -10.921,-1.365 V 0 h -7.279 v 47.322 h 6.916 l 0.273,-3.276 c 3.276,3.094 8.281,4.368 12.558,4.368 h 7.28 c 6.098,0 11.922,-2.64 11.922,-10.647 V 0 Z"
             style="fill:#36220f;fill-opacity:1;fill-rule:nonzero;stroke:none"
             id="path68"
             inkscape:connector-curvature="0" /></g><g
           id="g70"
           transform="translate(690.6641,247.2363)"><path
             d="m 0,0 v 36.947 c 0,3.913 -3.186,4.914 -6.098,4.914 h -4.823 c -4.731,0 -9.009,-0.818 -10.92,-1.365 V 0 h -7.28 v 36.947 c 0,3.913 -3.186,4.914 -6.098,4.914 h -5.369 c -4.277,0 -7.826,-0.727 -10.374,-1.365 V 0 h -7.28 v 47.322 h 6.916 l 0.273,-3.276 c 3.276,3.094 8.191,4.368 12.467,4.368 h 4.823 c 4.551,0 8.919,-1.456 10.83,-5.461 2.821,3.641 8.372,5.461 13.742,5.461 h 4.549 c 6.098,0 11.922,-2.64 11.922,-10.647 L 7.28,0 Z"
             style="fill:#36220f;fill-opacity:1;fill-rule:nonzero;stroke:none"
             id="path72"
             inkscape:connector-curvature="0" /></g><g
           id="g74"
           transform="translate(739.3018,269.623)"><path
             d="m 0,0 h -17.108 c -4.187,0 -6.735,-1.456 -6.735,-6.097 v -5.733 c 0,-4.096 3.003,-5.643 6.461,-5.643 h 9.647 c 3.913,0 7.735,1.73 7.735,7.736 z m 1.82,-22.387 -0.546,4.55 H 1.001 c -1.547,-3.003 -4.731,-5.642 -10.465,-5.642 h -9.465 c -7.007,0 -12.194,4.095 -12.194,10.739 v 5.46 c 0,9.009 5.278,12.74 13.469,12.74 L 0,5.46 v 8.009 c 0,5.095 -2.821,6.006 -7.553,6.006 h -20.385 v 4.459 c 2.639,1.638 8.008,2.093 11.194,2.093 H -6.643 C 0.91,26.027 7.28,23.388 7.28,14.105 V -6.734 c 0,-7.281 0.365,-11.011 0.91,-15.653 z"
             style="fill:#36220f;fill-opacity:1;fill-rule:nonzero;stroke:none"
             id="path76"
             inkscape:connector-curvature="0" /></g><g
           id="g78"
           transform="translate(780.5156,288.7344)"><path
             d="m 0,0 c -7.008,0 -11.285,-1.184 -14.379,-2.458 v -39.04 h -7.28 V 5.824 h 6.643 l 0.455,-3.914 c 3.185,2.549 9.373,4.642 13.742,4.642 1.273,0 4.64,-0.091 6.916,-0.364 L 6.097,0 Z"
             style="fill:#36220f;fill-opacity:1;fill-rule:nonzero;stroke:none"
             id="path80"
             inkscape:connector-curvature="0" /></g><g
           id="g82"
           transform="translate(826.2236,247.2363)"><path
             d="m 0,0 -16.017,23.297 -7.462,-8.281 V 0 h -7.28 v 66.614 h 7.28 V 23.023 L -2.274,47.322 H 5.915 L -11.193,28.211 8.1,0 Z"
             style="fill:#36220f;fill-opacity:1;fill-rule:nonzero;stroke:none"
             id="path84"
             inkscape:connector-curvature="0" /></g><g
           id="g86"
           transform="translate(900.4795,296.1055)"><path
             d="M 0,0 C 0,6.643 -3.186,8.099 -11.103,8.099 H -30.851 V -17.2 h 20.659 C -2.366,-17.2 0,-15.106 0,-8.281 Z m 0.546,-48.869 -18.474,25.935 h -12.923 v -25.935 h -7.644 V 14.105 H -8.373 C 2.729,14.105 7.553,9.828 7.553,0.637 V -9.737 c 0,-8.919 -5.915,-13.197 -14.197,-13.197 H -9.283 L 9.555,-48.869 Z"
             style="fill:#785d47;fill-opacity:1;fill-rule:nonzero;stroke:none"
             id="path88"
             inkscape:connector-curvature="0" /></g><g
           id="g90"
           transform="translate(950.7373,281.7266)"><path
             d="m 0,0 c 0,6.461 -3.367,7.917 -9.373,7.917 h -6.461 c -7.008,0 -9.465,-3.094 -9.465,-8.918 V -6.644 H 0 Z m 0.729,-12.104 h -26.028 v -8.554 c 0,-5.733 2.276,-8.737 9.282,-8.737 h 21.75 v -3.458 c -1.911,-1.637 -5.642,-2.729 -9.555,-2.729 h -12.376 c -8.464,0 -16.381,3.913 -16.381,15.379 v 17.655 c 0,13.286 8.009,16.472 18.292,16.472 h 4.185 c 9.192,0 17.201,-2.821 17.201,-15.471 v -9.465 z"
             style="fill:#785d47;fill-opacity:1;fill-rule:nonzero;stroke:none"
             id="path92"
             inkscape:connector-curvature="0" /></g><g
           id="g94"
           transform="translate(999.3125,286.1855)"><path
             d="m 0,0 c -2.184,1.456 -6.552,3.095 -12.012,3.095 h -6.825 c -2.549,0 -5.552,-1.275 -5.552,-6.735 v -21.75 c 0,-5.46 3.823,-5.824 6.644,-5.824 h 5.551 c 6.006,0 10.192,1.092 12.194,1.638 z m -8.736,-58.97 h -11.102 c -2.912,0 -8.009,0.273 -10.375,2.184 v 4.277 h 22.296 c 5.733,0 7.917,2.912 7.917,8.464 v 10.647 c -3.458,-3.549 -7.826,-4.459 -12.649,-4.459 h -6.461 c -8.191,0 -12.559,3.276 -12.559,11.648 V -3.73 c 0,8.827 5.824,13.195 14.196,13.195 h 7.008 c 3.731,0 8.646,-1.639 11.012,-4.642 l 1.001,3.55 H 7.28 v -51.872 c 0,-10.83 -5.46,-15.471 -16.016,-15.471"
             style="fill:#785d47;fill-opacity:1;fill-rule:nonzero;stroke:none"
             id="path96"
             inkscape:connector-curvature="0" /></g><path
           d="m 1018.831,294.559 h 7.28 v -47.322 h -7.28 z m 0,19.292 h 7.28 v -9.101 h -7.28 z"
           style="fill:#785d47;fill-opacity:1;fill-rule:nonzero;stroke:none"
           id="path98"
           inkscape:connector-curvature="0" /><g
           id="g100"
           transform="translate(1070.7744,281.1807)"><path
             d="m 0,0 c 0,4.368 -2.093,8.646 -7.007,8.646 h -11.831 c -5.278,0 -7.371,-3.823 -7.371,-8.646 v -20.476 c 0,-4.823 2.093,-8.736 7.371,-8.736 h 11.831 c 4.914,0 7.007,4.277 7.007,8.646 z m -8.281,-35.036 h -9.101 c -9.828,0 -16.107,5.186 -16.107,15.288 v 18.929 c 0,10.101 6.279,15.289 16.107,15.289 h 9.101 C 1.729,14.47 7.28,8.463 7.28,-1.365 v -17.837 c 0,-9.828 -5.551,-15.834 -15.561,-15.834"
             style="fill:#785d47;fill-opacity:1;fill-rule:nonzero;stroke:none"
             id="path102"
             inkscape:connector-curvature="0" /></g><g
           id="g104"
           transform="translate(1120.9336,247.2363)"><path
             d="m 0,0 v 36.947 c 0,3.913 -3.185,4.914 -6.097,4.914 h -7.372 c -5.005,0 -9.099,-0.818 -10.92,-1.365 V 0 h -7.28 v 47.322 h 6.916 l 0.274,-3.276 c 3.275,3.094 8.281,4.368 12.558,4.368 h 7.28 c 6.097,0 11.921,-2.64 11.921,-10.647 L 7.28,0 Z"
             style="fill:#785d47;fill-opacity:1;fill-rule:nonzero;stroke:none"
             id="path106"
             inkscape:connector-curvature="0" /></g></g></g></g></svg>