<?xml version="1.0" encoding="UTF-8" standalone="no"?>
<!-- Created with Inkscape (http://www.inkscape.org/) -->

<svg
   xmlns:dc="http://purl.org/dc/elements/1.1/"
   xmlns:cc="http://creativecommons.org/ns#"
   xmlns:rdf="http://www.w3.org/1999/02/22-rdf-syntax-ns#"
   xmlns:svg="http://www.w3.org/2000/svg"
   xmlns="http://www.w3.org/2000/svg"
   xmlns:sodipodi="http://sodipodi.sourceforge.net/DTD/sodipodi-0.dtd"
   xmlns:inkscape="http://www.inkscape.org/namespaces/inkscape"
   version="1.1"
   id="svg951"
   xml:space="preserve"
   width="280.79999"
   height="62.5784"
   viewBox="0 0 280.79999 62.578399"
   sodipodi:docname="esrii_org.svg"
   inkscape:version="0.92.3 (2405546, 2018-03-11)"><metadata
     id="metadata957"><rdf:RDF><cc:Work
         rdf:about=""><dc:format>image/svg+xml</dc:format><dc:type
           rdf:resource="http://purl.org/dc/dcmitype/StillImage" /><dc:title></dc:title></cc:Work></rdf:RDF></metadata><defs
     id="defs955"><clipPath
       clipPathUnits="userSpaceOnUse"
       id="clipPath969"><path
         d="M 0,0 H 595.281 V 841.89 H 0 Z"
         id="path967"
         inkscape:connector-curvature="0" /></clipPath><clipPath
       clipPathUnits="userSpaceOnUse"
       id="clipPath991"><path
         d="M 0,841.89 H 595.28 V 0 H 0 Z"
         id="path989"
         inkscape:connector-curvature="0" /></clipPath><clipPath
       clipPathUnits="userSpaceOnUse"
       id="clipPath1187"><path
         d="M 0,0 H 595.281 V 841.89 H 0 Z"
         id="path1185"
         inkscape:connector-curvature="0" /></clipPath></defs><sodipodi:namedview
     pagecolor="#ffffff"
     bordercolor="#666666"
     borderopacity="1"
     objecttolerance="10"
     gridtolerance="10"
     guidetolerance="10"
     inkscape:pageopacity="0"
     inkscape:pageshadow="2"
     inkscape:window-width="1920"
     inkscape:window-height="950"
     id="namedview953"
     showgrid="false"
     fit-margin-top="0"
     fit-margin-left="0"
     fit-margin-right="0"
     fit-margin-bottom="0"
     inkscape:zoom="2.3786081"
     inkscape:cx="128.15972"
     inkscape:cy="26.574621"
     inkscape:window-x="0"
     inkscape:window-y="27"
     inkscape:window-maximized="1"
     inkscape:current-layer="g959" /><g
     id="g959"
     inkscape:groupmode="layer"
     inkscape:label="2012-05-02_logo_esrii"
     transform="matrix(1.3333333,0,0,-1.3333333,-237.23519,1048.3746)"><path
       d="m 230.039,786.281 h 8.646 v -6.891 h -8.646 z"
       style="fill:#00adef;fill-opacity:1;fill-rule:nonzero;stroke:none"
       id="path961"
       inkscape:connector-curvature="0" /><g
       id="g963"><g
         id="g965"
         clip-path="url(#clipPath969)"><g
           id="g971"
           transform="translate(230.1694,739.7393)"><path
             d="m 0,0 v 33.537 c 4.27,1.615 8.449,-0.132 8.449,-0.132 V 0 Z"
             style="fill:#00adef;fill-opacity:1;fill-rule:nonzero;stroke:none"
             id="path973"
             inkscape:connector-curvature="0" /></g><g
           id="g975"
           transform="translate(235.5562,764.373)"><path
             d="m 0,0 c -1.3,1.3 -2.404,2.015 -4.484,2.015 -2.601,0 -5.461,-1.95 -5.461,-6.24 v -20.411 h -8.451 V 8.563 l 8.255,0.667 V 5.98 c 1.625,1.951 4.875,3.641 8.516,3.641 3.315,0 5.655,-0.846 7.996,-3.185 z"
             style="fill:#00adef;fill-opacity:1;fill-rule:nonzero;stroke:none"
             id="path977"
             inkscape:connector-curvature="0" /></g><path
           d="m 242.842,773.585 h 8.451 v -33.866 h -8.451 z m -0.129,12.676 h 8.645 v -6.891 h -8.645 z"
           style="fill:#00adef;fill-opacity:1;fill-rule:nonzero;stroke:none"
           id="path979"
           inkscape:connector-curvature="0" /><g
           id="g981"
           transform="translate(198.3374,763.4634)"><path
             d="m 0,0 c -0.636,2.118 -2.795,3.51 -5.655,3.51 -2.86,0 -4.745,-1.495 -5.656,-3.51 -0.52,-1.235 -0.714,-2.145 -0.78,-3.64 H 0.585 C 0.52,-2.145 0.405,-1.351 0,0 m -12.091,-9.425 c 0,-4.356 2.666,-7.541 7.41,-7.541 3.705,0 6.526,1.04 8.671,3.185 l 4.136,-5.005 c -3.445,-3.445 -6.761,-5.33 -12.871,-5.33 -7.995,0 -15.666,3.64 -15.666,17.356 0,11.05 5.98,17.29 14.756,17.29 9.426,0 14.756,-6.89 14.756,-16.185 v -3.977 z"
             style="fill:#ec008c;fill-opacity:1;fill-rule:nonzero;stroke:none"
             id="path983"
             inkscape:connector-curvature="0" /></g></g></g><g
       id="g985"><g
         id="g987"
         clip-path="url(#clipPath991)"><g
           id="g993"
           transform="translate(260.1406,769.8608)"><path
             d="M 0,0 C -0.024,0.514 -0.1,0.921 -0.226,1.222 -0.361,1.556 -0.585,1.824 -0.898,2.025 -1.211,2.227 -1.556,2.327 -1.935,2.327 -2.318,2.327 -2.663,2.229 -2.971,2.033 -3.279,1.836 -3.505,1.566 -3.651,1.222 -3.768,0.926 -3.843,0.519 -3.876,0 Z m 1.069,-0.808 h -4.945 c 0,-0.802 0.188,-1.423 0.563,-1.863 0.376,-0.44 0.908,-0.66 1.597,-0.66 0.407,0 0.754,0.063 1.04,0.189 0.286,0.126 0.581,0.339 0.887,0.64 L 0.938,-3.143 C 0.541,-3.54 0.144,-3.827 -0.251,-4.004 -0.646,-4.181 -1.145,-4.27 -1.746,-4.27 c -0.644,0 -1.208,0.134 -1.691,0.4 -0.482,0.267 -0.854,0.682 -1.116,1.245 -0.261,0.562 -0.393,1.265 -0.393,2.108 0,0.592 0.07,1.118 0.208,1.579 0.138,0.46 0.338,0.853 0.6,1.178 0.262,0.325 0.579,0.572 0.952,0.742 0.374,0.169 0.791,0.254 1.251,0.254 0.621,0 1.159,-0.144 1.615,-0.433 C 0.136,2.514 0.481,2.1 0.716,1.561 0.952,1.021 1.069,0.395 1.069,-0.319 Z"
             style="fill:#ed156f;fill-opacity:1;fill-rule:nonzero;stroke:none"
             id="path995"
             inkscape:connector-curvature="0" /></g><g
           id="g997"
           transform="translate(268.812,765.6787)"><path
             d="M 0,0 H -1.055 V 0.822 C -1.307,0.526 -1.612,0.301 -1.971,0.146 -2.33,-0.01 -2.713,-0.087 -3.121,-0.087 c -0.809,0 -1.442,0.228 -1.898,0.683 -0.252,0.253 -0.439,0.55 -0.56,0.895 C -5.7,1.835 -5.76,2.223 -5.76,2.655 v 4.676 h 1.069 V 2.814 c 0,-0.63 0.157,-1.112 0.473,-1.447 0.316,-0.334 0.754,-0.501 1.312,-0.501 0.569,0 1.017,0.168 1.344,0.505 0.329,0.337 0.493,0.818 0.493,1.443 V 7.331 H 0 Z"
             style="fill:#ed156f;fill-opacity:1;fill-rule:nonzero;stroke:none"
             id="path999"
             inkscape:connector-curvature="0" /></g><g
           id="g1001"
           transform="translate(276.0034,772.4136)"><path
             d="m 0,0 -0.785,-0.807 c -0.199,0.199 -0.392,0.338 -0.579,0.418 -0.186,0.08 -0.418,0.12 -0.694,0.12 -0.349,0 -0.657,-0.086 -0.924,-0.258 C -3.249,-0.7 -3.454,-0.934 -3.596,-1.229 -3.739,-1.525 -3.811,-1.862 -3.811,-2.24 V -6.735 H -4.88 v 7.331 h 1.069 v -0.894 c 0.204,0.305 0.491,0.545 0.862,0.72 0.371,0.174 0.767,0.262 1.189,0.262 0.713,0 1.3,-0.228 1.76,-0.684"
             style="fill:#ed156f;fill-opacity:1;fill-rule:nonzero;stroke:none"
             id="path1003"
             inkscape:connector-curvature="0" /></g><g
           id="g1005"
           transform="translate(281.5586,769.3442)"><path
             d="M 0,0 C 0,0.533 -0.038,0.984 -0.113,1.353 -0.188,1.721 -0.344,2.024 -0.582,2.262 -0.94,2.621 -1.387,2.8 -1.92,2.8 -2.439,2.8 -2.882,2.621 -3.251,2.262 -3.493,2.015 -3.652,1.703 -3.727,1.327 -3.802,0.952 -3.84,0.509 -3.84,0 c 0,-0.514 0.038,-0.958 0.113,-1.331 0.075,-0.373 0.234,-0.684 0.476,-0.931 0.359,-0.359 0.803,-0.538 1.331,-0.538 0.543,0 0.989,0.179 1.338,0.538 0.243,0.242 0.4,0.546 0.473,0.909 C -0.036,-0.989 0,-0.538 0,0 M 1.069,0 C 1.069,-0.427 1.046,-0.806 1,-1.138 0.954,-1.47 0.865,-1.791 0.731,-2.098 0.598,-2.406 0.413,-2.681 0.176,-2.924 c -0.552,-0.553 -1.25,-0.829 -2.093,-0.829 -0.837,0 -1.537,0.276 -2.099,0.829 -0.237,0.243 -0.421,0.514 -0.552,0.815 -0.131,0.3 -0.22,0.621 -0.268,0.96 -0.049,0.339 -0.073,0.722 -0.073,1.149 0,0.645 0.063,1.204 0.189,1.676 0.126,0.473 0.361,0.887 0.704,1.241 0.557,0.557 1.257,0.836 2.099,0.836 0.848,0 1.545,-0.279 2.093,-0.836 C 0.52,2.572 0.754,2.161 0.88,1.684 1.006,1.206 1.069,0.645 1.069,0"
             style="fill:#ed156f;fill-opacity:1;fill-rule:nonzero;stroke:none"
             id="path1007"
             inkscape:connector-curvature="0" /></g><g
           id="g1009"
           transform="translate(289.3179,769.3442)"><path
             d="M 0,0 C 0,0.863 -0.124,1.545 -0.371,2.047 -0.618,2.549 -1.105,2.8 -1.833,2.8 -2.555,2.8 -3.044,2.547 -3.298,2.04 -3.553,1.533 -3.68,0.854 -3.68,0 c 0,-0.858 0.126,-1.54 0.378,-2.043 0.252,-0.505 0.742,-0.757 1.469,-0.757 0.728,0 1.215,0.25 1.462,0.749 C -0.124,-1.552 0,-0.868 0,0 m 1.069,0 c 0,-0.674 -0.064,-1.279 -0.193,-1.814 -0.128,-0.537 -0.362,-0.969 -0.701,-1.299 -0.19,-0.189 -0.444,-0.343 -0.764,-0.462 -0.32,-0.118 -0.662,-0.178 -1.026,-0.178 -0.286,0 -0.545,0.028 -0.778,0.084 -0.232,0.056 -0.459,0.155 -0.68,0.298 -0.22,0.143 -0.423,0.333 -0.607,0.571 V -6.946 H -4.749 V 3.666 H -3.68 V 2.8 c 0.281,0.364 0.585,0.614 0.913,0.749 0.327,0.136 0.711,0.204 1.152,0.204 0.364,0 0.706,-0.057 1.026,-0.171 0.32,-0.114 0.574,-0.27 0.764,-0.469 C 0.514,2.783 0.748,2.351 0.876,1.814 1.005,1.279 1.069,0.674 1.069,0"
             style="fill:#ed156f;fill-opacity:1;fill-rule:nonzero;stroke:none"
             id="path1011"
             inkscape:connector-curvature="0" /></g><g
           id="g1013"
           transform="translate(296.8662,769.8608)"><path
             d="M 0,0 C -0.024,0.514 -0.1,0.921 -0.226,1.222 -0.361,1.556 -0.585,1.824 -0.898,2.025 -1.211,2.227 -1.556,2.327 -1.935,2.327 -2.318,2.327 -2.663,2.229 -2.971,2.033 -3.279,1.836 -3.505,1.566 -3.651,1.222 -3.768,0.926 -3.843,0.519 -3.876,0 Z m 1.069,-0.808 h -4.945 c 0,-0.802 0.188,-1.423 0.563,-1.863 0.376,-0.44 0.908,-0.66 1.597,-0.66 0.407,0 0.754,0.063 1.04,0.189 0.286,0.126 0.581,0.339 0.887,0.64 L 0.938,-3.143 C 0.541,-3.54 0.145,-3.827 -0.251,-4.004 -0.646,-4.181 -1.145,-4.27 -1.746,-4.27 c -0.644,0 -1.208,0.134 -1.691,0.4 -0.482,0.267 -0.854,0.682 -1.116,1.245 -0.261,0.562 -0.393,1.265 -0.393,2.108 0,0.592 0.07,1.118 0.208,1.579 0.138,0.46 0.338,0.853 0.6,1.178 0.262,0.325 0.579,0.572 0.952,0.742 0.374,0.169 0.791,0.254 1.251,0.254 0.621,0 1.159,-0.144 1.615,-0.433 C 0.136,2.514 0.481,2.1 0.717,1.561 0.951,1.021 1.069,0.395 1.069,-0.319 Z"
             style="fill:#ed156f;fill-opacity:1;fill-rule:nonzero;stroke:none"
             id="path1015"
             inkscape:connector-curvature="0" /></g><g
           id="g1017"
           transform="translate(304.0137,768.2627)"><path
             d="m 0,0 v 0.791 h -2.058 c -1.09,0 -1.636,-0.431 -1.636,-1.291 0,-0.421 0.135,-0.734 0.407,-0.939 0.271,-0.206 0.695,-0.309 1.272,-0.309 0.369,0 0.682,0.031 0.939,0.091 0.257,0.06 0.492,0.192 0.706,0.395 C -0.123,-1.025 0,-0.604 0,0 M 1.069,-2.584 H 0 v 0.698 c -0.296,-0.296 -0.602,-0.501 -0.918,-0.614 -0.315,-0.114 -0.716,-0.171 -1.201,-0.171 -0.496,0 -0.908,0.052 -1.238,0.156 -0.331,0.104 -0.61,0.275 -0.838,0.513 -0.369,0.368 -0.554,0.865 -0.554,1.491 0,0.655 0.22,1.17 0.659,1.545 0.44,0.376 1.068,0.564 1.883,0.564 L 0,1.598 V 2.304 C 0,2.852 -0.146,3.256 -0.439,3.518 -0.733,3.78 -1.212,3.911 -1.876,3.911 -2.337,3.911 -2.704,3.849 -2.979,3.725 -3.252,3.602 -3.501,3.385 -3.724,3.074 l -0.739,0.67 c 0.208,0.271 0.439,0.488 0.692,0.651 0.251,0.162 0.532,0.276 0.84,0.341 0.308,0.066 0.663,0.098 1.067,0.098 0.505,0 0.939,-0.052 1.302,-0.156 C -0.197,4.574 0.106,4.418 0.349,4.212 0.592,4.006 0.772,3.754 0.891,3.456 1.01,3.158 1.069,2.803 1.069,2.391 Z"
             style="fill:#ed156f;fill-opacity:1;fill-rule:nonzero;stroke:none"
             id="path1019"
             inkscape:connector-curvature="0" /></g><g
           id="g1021"
           transform="translate(313.0967,765.6787)"><path
             d="m 0,0 h -1.069 v 4.517 c 0,0.319 -0.043,0.606 -0.131,0.858 -0.088,0.252 -0.205,0.456 -0.354,0.611 -0.148,0.155 -0.331,0.274 -0.55,0.356 -0.218,0.082 -0.473,0.124 -0.765,0.124 -0.564,0 -1.008,-0.169 -1.333,-0.506 C -4.528,5.623 -4.69,5.142 -4.69,4.517 V 0 h -1.07 v 7.331 h 1.07 V 6.524 c 0.266,0.3 0.569,0.525 0.909,0.673 0.339,0.147 0.719,0.221 1.141,0.221 0.795,0 1.421,-0.228 1.876,-0.683 C -0.254,6.24 0,5.559 0,4.691 Z"
             style="fill:#ed156f;fill-opacity:1;fill-rule:nonzero;stroke:none"
             id="path1023"
             inkscape:connector-curvature="0" /></g><g
           id="g1025"
           transform="translate(323.874,767.8242)"><path
             d="m 0,0 c 0,-0.465 -0.124,-0.865 -0.371,-1.2 -0.247,-0.335 -0.594,-0.591 -1.04,-0.767 -0.446,-0.178 -0.968,-0.266 -1.564,-0.266 -0.635,0 -1.198,0.083 -1.687,0.248 -0.49,0.164 -0.931,0.433 -1.324,0.807 l 0.713,0.713 c 0.533,-0.563 1.294,-0.844 2.284,-0.844 0.61,0 1.088,0.109 1.432,0.327 0.344,0.218 0.517,0.541 0.517,0.967 0,0.321 -0.099,0.57 -0.295,0.749 -0.196,0.18 -0.506,0.287 -0.927,0.321 L -3.47,1.164 c -1.459,0.121 -2.188,0.775 -2.188,1.963 0,0.66 0.25,1.182 0.752,1.568 0.502,0.385 1.15,0.578 1.946,0.578 0.528,0 1.021,-0.067 1.476,-0.2 0.456,-0.134 0.841,-0.331 1.157,-0.593 L -1.025,3.782 c -0.51,0.388 -1.16,0.582 -1.95,0.582 -0.529,0 -0.934,-0.107 -1.218,-0.32 -0.284,-0.213 -0.425,-0.509 -0.425,-0.887 0,-0.645 0.429,-1.002 1.287,-1.07 L -2.16,1.979 C -1.467,1.915 -0.934,1.731 -0.561,1.425 -0.187,1.12 0,0.645 0,0"
             style="fill:#ed156f;fill-opacity:1;fill-rule:nonzero;stroke:none"
             id="path1027"
             inkscape:connector-curvature="0" /></g><g
           id="g1029"
           transform="translate(329.835,769.3442)"><path
             d="M 0,0 C 0,0.533 -0.037,0.984 -0.112,1.353 -0.188,1.721 -0.344,2.024 -0.582,2.262 -0.94,2.621 -1.387,2.8 -1.92,2.8 -2.438,2.8 -2.883,2.621 -3.251,2.262 -3.493,2.015 -3.652,1.703 -3.728,1.327 -3.803,0.952 -3.84,0.509 -3.84,0 c 0,-0.514 0.037,-0.958 0.112,-1.331 0.076,-0.373 0.235,-0.684 0.477,-0.931 0.358,-0.359 0.803,-0.538 1.331,-0.538 0.543,0 0.989,0.179 1.338,0.538 0.243,0.242 0.4,0.546 0.473,0.909 C -0.036,-0.989 0,-0.538 0,0 M 1.069,0 C 1.069,-0.427 1.046,-0.806 1,-1.138 0.954,-1.47 0.864,-1.791 0.731,-2.098 0.599,-2.406 0.413,-2.681 0.176,-2.924 c -0.552,-0.553 -1.25,-0.829 -2.092,-0.829 -0.838,0 -1.538,0.276 -2.1,0.829 -0.237,0.243 -0.422,0.514 -0.551,0.815 -0.131,0.3 -0.221,0.621 -0.27,0.96 -0.048,0.339 -0.072,0.722 -0.072,1.149 0,0.645 0.063,1.204 0.188,1.676 0.126,0.473 0.362,0.887 0.705,1.241 0.557,0.557 1.257,0.836 2.1,0.836 0.847,0 1.545,-0.279 2.092,-0.836 C 0.52,2.572 0.755,2.161 0.881,1.684 1.006,1.206 1.069,0.645 1.069,0"
             style="fill:#ed156f;fill-opacity:1;fill-rule:nonzero;stroke:none"
             id="path1031"
             inkscape:connector-curvature="0" /></g><g
           id="g1033"
           transform="translate(337.7871,766.6753)"><path
             d="m 0,0 c -0.368,-0.398 -0.734,-0.678 -1.099,-0.84 -0.363,-0.162 -0.801,-0.244 -1.316,-0.244 -0.455,0 -0.884,0.08 -1.283,0.24 -0.401,0.16 -0.746,0.397 -1.036,0.709 -0.291,0.313 -0.518,0.706 -0.681,1.178 -0.162,0.473 -0.243,1.015 -0.243,1.626 0,0.805 0.14,1.491 0.422,2.058 0.281,0.567 0.666,0.992 1.156,1.273 0.489,0.281 1.045,0.422 1.665,0.422 0.519,0 0.959,-0.081 1.32,-0.244 C -0.733,6.016 -0.368,5.733 0,5.331 L -0.728,4.647 c -0.271,0.301 -0.53,0.513 -0.778,0.637 -0.247,0.123 -0.55,0.185 -0.909,0.185 -0.741,0 -1.307,-0.279 -1.694,-0.836 -0.17,-0.238 -0.292,-0.51 -0.368,-0.819 -0.075,-0.308 -0.112,-0.689 -0.112,-1.145 0,-0.451 0.037,-0.83 0.112,-1.138 0.076,-0.308 0.198,-0.586 0.368,-0.833 0.392,-0.552 0.958,-0.829 1.694,-0.829 0.35,0 0.646,0.062 0.892,0.185 0.244,0.124 0.509,0.339 0.795,0.644 z"
             style="fill:#ed156f;fill-opacity:1;fill-rule:nonzero;stroke:none"
             id="path1035"
             inkscape:connector-curvature="0" /></g><path
           d="m 340.233,765.679 h -1.069 v 7.331 h 1.069 z m 0.204,10.08 c 0,-0.131 -0.035,-0.252 -0.102,-0.363 -0.067,-0.112 -0.156,-0.201 -0.268,-0.266 -0.111,-0.066 -0.234,-0.098 -0.369,-0.098 -0.13,0 -0.251,0.032 -0.361,0.098 -0.111,0.065 -0.199,0.154 -0.265,0.266 -0.065,0.111 -0.097,0.232 -0.097,0.363 0,0.136 0.032,0.26 0.097,0.371 0.066,0.112 0.154,0.2 0.265,0.266 0.11,0.065 0.231,0.098 0.361,0.098 0.097,0 0.193,-0.02 0.286,-0.058 0.094,-0.04 0.175,-0.094 0.243,-0.164 0.067,-0.07 0.119,-0.149 0.155,-0.236 0.036,-0.088 0.055,-0.18 0.055,-0.277"
           style="fill:#ed156f;fill-opacity:1;fill-rule:nonzero;stroke:none"
           id="path1037"
           inkscape:connector-curvature="0" /><g
           id="g1039"
           transform="translate(346.7998,769.8608)"><path
             d="M 0,0 C -0.024,0.514 -0.1,0.921 -0.226,1.222 -0.361,1.556 -0.585,1.824 -0.898,2.025 -1.211,2.227 -1.557,2.327 -1.935,2.327 -2.317,2.327 -2.663,2.229 -2.971,2.033 -3.279,1.836 -3.506,1.566 -3.651,1.222 -3.768,0.926 -3.843,0.519 -3.876,0 Z m 1.069,-0.808 h -4.945 c 0,-0.802 0.188,-1.423 0.563,-1.863 0.375,-0.44 0.908,-0.66 1.596,-0.66 0.408,0 0.754,0.063 1.04,0.189 0.286,0.126 0.582,0.339 0.888,0.64 L 0.938,-3.143 C 0.541,-3.54 0.145,-3.827 -0.251,-4.004 -0.646,-4.181 -1.145,-4.27 -1.745,-4.27 c -0.646,0 -1.209,0.134 -1.692,0.4 -0.482,0.267 -0.854,0.682 -1.116,1.245 -0.261,0.562 -0.392,1.265 -0.392,2.108 0,0.592 0.068,1.118 0.207,1.579 0.137,0.46 0.338,0.853 0.599,1.178 0.263,0.325 0.58,0.572 0.953,0.742 0.373,0.169 0.79,0.254 1.251,0.254 0.622,0 1.16,-0.144 1.615,-0.433 C 0.136,2.514 0.481,2.1 0.717,1.561 0.951,1.021 1.069,0.395 1.069,-0.319 Z"
             style="fill:#ed156f;fill-opacity:1;fill-rule:nonzero;stroke:none"
             id="path1041"
             inkscape:connector-curvature="0" /></g><g
           id="g1043"
           transform="translate(352.2939,765.6787)"><path
             d="m 0,0 h -0.757 c -0.601,0 -1.064,0.185 -1.389,0.556 -0.325,0.37 -0.487,0.839 -0.487,1.405 V 6.458 H -3.557 V 7.28 h 0.924 v 2.299 h 1.069 V 7.28 H 0 V 6.458 H -1.564 V 1.991 c 0,-0.711 0.335,-1.067 1.003,-1.067 H 0 Z"
             style="fill:#ed156f;fill-opacity:1;fill-rule:nonzero;stroke:none"
             id="path1045"
             inkscape:connector-curvature="0" /></g><g
           id="g1047"
           transform="translate(359.209,773.0098)"><path
             d="m 0,0 -3.339,-9.105 c -0.14,-0.384 -0.315,-0.67 -0.523,-0.859 -0.345,-0.339 -0.82,-0.509 -1.426,-0.509 h -0.465 v 0.953 h 0.327 c 0.363,0 0.625,0.065 0.785,0.196 0.161,0.131 0.301,0.369 0.422,0.713 L -3.695,-7.186 -6.328,0 h 1.156 L -3.157,-5.884 -1.164,0 Z"
             style="fill:#ed156f;fill-opacity:1;fill-rule:nonzero;stroke:none"
             id="path1049"
             inkscape:connector-curvature="0" /></g><g
           id="g1051"
           transform="translate(258.4751,759.2085)"><path
             d="m 0,0 h -1.563 v -6.458 h -1.07 V 0 h -0.938 v 0.822 h 0.938 v 1.389 c 0,0.572 0.16,1.042 0.479,1.411 0.319,0.368 0.779,0.553 1.378,0.553 H 0 V 3.251 h -0.582 c -0.654,0 -0.981,-0.356 -0.981,-1.069 V 0.822 H 0 Z"
             style="fill:#00adef;fill-opacity:1;fill-rule:nonzero;stroke:none"
             id="path1053"
             inkscape:connector-curvature="0" /></g><g
           id="g1055"
           transform="translate(263.835,756.4155)"><path
             d="M 0,0 C 0,0.533 -0.038,0.984 -0.113,1.353 -0.188,1.721 -0.344,2.024 -0.582,2.262 -0.94,2.621 -1.387,2.8 -1.92,2.8 -2.439,2.8 -2.882,2.621 -3.251,2.262 -3.493,2.015 -3.652,1.703 -3.727,1.327 -3.802,0.952 -3.84,0.509 -3.84,0 c 0,-0.514 0.038,-0.958 0.113,-1.331 0.075,-0.373 0.234,-0.684 0.476,-0.931 0.359,-0.359 0.803,-0.538 1.331,-0.538 0.543,0 0.989,0.179 1.338,0.538 0.243,0.242 0.4,0.546 0.473,0.909 C -0.036,-0.989 0,-0.538 0,0 M 1.069,0 C 1.069,-0.427 1.046,-0.806 1,-1.138 0.954,-1.47 0.865,-1.791 0.731,-2.098 0.598,-2.406 0.413,-2.681 0.176,-2.924 c -0.552,-0.553 -1.25,-0.829 -2.093,-0.829 -0.837,0 -1.537,0.276 -2.099,0.829 -0.237,0.243 -0.421,0.514 -0.552,0.815 -0.131,0.3 -0.22,0.621 -0.268,0.96 -0.049,0.339 -0.073,0.722 -0.073,1.149 0,0.645 0.063,1.204 0.189,1.676 0.126,0.473 0.361,0.887 0.704,1.241 0.557,0.557 1.257,0.836 2.099,0.836 0.848,0 1.545,-0.279 2.093,-0.836 C 0.52,2.572 0.754,2.161 0.88,1.684 1.006,1.206 1.069,0.645 1.069,0"
             style="fill:#00adef;fill-opacity:1;fill-rule:nonzero;stroke:none"
             id="path1057"
             inkscape:connector-curvature="0" /></g><g
           id="g1059"
           transform="translate(271.1177,759.4849)"><path
             d="m 0,0 -0.785,-0.807 c -0.199,0.199 -0.392,0.338 -0.579,0.418 -0.186,0.08 -0.418,0.12 -0.694,0.12 -0.349,0 -0.657,-0.086 -0.924,-0.258 C -3.249,-0.7 -3.454,-0.934 -3.596,-1.229 -3.739,-1.525 -3.811,-1.862 -3.811,-2.24 V -6.735 H -4.88 v 7.331 h 1.069 v -0.894 c 0.204,0.305 0.491,0.545 0.862,0.72 0.371,0.174 0.767,0.262 1.189,0.262 0.713,0 1.3,-0.228 1.76,-0.684"
             style="fill:#00adef;fill-opacity:1;fill-rule:nonzero;stroke:none"
             id="path1061"
             inkscape:connector-curvature="0" /></g><g
           id="g1063"
           transform="translate(280.3662,759.4849)"><path
             d="m 0,0 -0.785,-0.807 c -0.199,0.199 -0.392,0.338 -0.579,0.418 -0.186,0.08 -0.418,0.12 -0.694,0.12 -0.349,0 -0.657,-0.086 -0.924,-0.258 C -3.249,-0.7 -3.454,-0.934 -3.596,-1.229 -3.739,-1.525 -3.811,-1.862 -3.811,-2.24 V -6.735 H -4.88 v 7.331 h 1.069 v -0.894 c 0.204,0.305 0.491,0.545 0.862,0.72 0.371,0.174 0.767,0.262 1.189,0.262 0.713,0 1.3,-0.228 1.76,-0.684"
             style="fill:#00adef;fill-opacity:1;fill-rule:nonzero;stroke:none"
             id="path1065"
             inkscape:connector-curvature="0" /></g><g
           id="g1067"
           transform="translate(285.9365,756.9321)"><path
             d="M 0,0 C -0.024,0.514 -0.1,0.921 -0.226,1.222 -0.361,1.556 -0.585,1.824 -0.898,2.025 -1.211,2.227 -1.556,2.327 -1.935,2.327 -2.318,2.327 -2.663,2.229 -2.971,2.033 -3.279,1.836 -3.505,1.566 -3.651,1.222 -3.768,0.926 -3.843,0.519 -3.876,0 Z m 1.069,-0.808 h -4.945 c 0,-0.802 0.188,-1.423 0.563,-1.863 0.376,-0.44 0.908,-0.66 1.597,-0.66 0.407,0 0.754,0.063 1.04,0.189 0.286,0.126 0.581,0.339 0.887,0.64 L 0.938,-3.143 C 0.541,-3.54 0.144,-3.827 -0.251,-4.004 -0.646,-4.181 -1.145,-4.27 -1.746,-4.27 c -0.644,0 -1.208,0.134 -1.691,0.4 -0.482,0.267 -0.854,0.682 -1.116,1.245 -0.261,0.562 -0.393,1.265 -0.393,2.108 0,0.592 0.07,1.118 0.208,1.579 0.138,0.46 0.338,0.853 0.6,1.178 0.262,0.325 0.579,0.572 0.952,0.742 0.374,0.169 0.791,0.254 1.251,0.254 0.621,0 1.159,-0.144 1.615,-0.433 C 0.136,2.514 0.481,2.1 0.716,1.561 0.952,1.021 1.069,0.395 1.069,-0.319 Z"
             style="fill:#00adef;fill-opacity:1;fill-rule:nonzero;stroke:none"
             id="path1069"
             inkscape:connector-curvature="0" /></g><g
           id="g1071"
           transform="translate(294.2119,754.8955)"><path
             d="m 0,0 c 0,-0.465 -0.124,-0.865 -0.371,-1.2 -0.247,-0.335 -0.594,-0.591 -1.04,-0.767 -0.446,-0.178 -0.967,-0.266 -1.564,-0.266 -0.635,0 -1.197,0.083 -1.687,0.248 -0.489,0.164 -0.931,0.433 -1.323,0.807 l 0.712,0.713 c 0.534,-0.563 1.295,-0.844 2.284,-0.844 0.611,0 1.089,0.109 1.433,0.327 0.344,0.218 0.516,0.541 0.516,0.967 0,0.321 -0.098,0.57 -0.294,0.749 -0.197,0.18 -0.506,0.287 -0.928,0.321 l -1.207,0.109 c -1.46,0.121 -2.189,0.775 -2.189,1.963 0,0.66 0.251,1.182 0.753,1.568 0.501,0.385 1.15,0.578 1.945,0.578 0.528,0 1.021,-0.067 1.477,-0.2 0.455,-0.134 0.841,-0.331 1.156,-0.593 L -1.025,3.782 c -0.509,0.388 -1.159,0.582 -1.95,0.582 -0.528,0 -0.934,-0.107 -1.218,-0.32 -0.283,-0.213 -0.425,-0.509 -0.425,-0.887 0,-0.645 0.429,-1.002 1.287,-1.07 L -2.16,1.979 C -1.466,1.915 -0.933,1.731 -0.56,1.425 -0.187,1.12 0,0.645 0,0"
             style="fill:#00adef;fill-opacity:1;fill-rule:nonzero;stroke:none"
             id="path1073"
             inkscape:connector-curvature="0" /></g><g
           id="g1075"
           transform="translate(300.4873,756.9321)"><path
             d="M 0,0 C -0.024,0.514 -0.1,0.921 -0.226,1.222 -0.361,1.556 -0.585,1.824 -0.898,2.025 -1.211,2.227 -1.557,2.327 -1.935,2.327 -2.317,2.327 -2.663,2.229 -2.971,2.033 -3.279,1.836 -3.505,1.566 -3.651,1.222 -3.768,0.926 -3.843,0.519 -3.876,0 Z m 1.069,-0.808 h -4.945 c 0,-0.802 0.188,-1.423 0.563,-1.863 0.375,-0.44 0.908,-0.66 1.596,-0.66 0.408,0 0.754,0.063 1.04,0.189 0.286,0.126 0.582,0.339 0.888,0.64 L 0.938,-3.143 C 0.541,-3.54 0.145,-3.827 -0.251,-4.004 -0.646,-4.181 -1.145,-4.27 -1.745,-4.27 c -0.646,0 -1.209,0.134 -1.692,0.4 -0.482,0.267 -0.854,0.682 -1.116,1.245 -0.261,0.562 -0.393,1.265 -0.393,2.108 0,0.592 0.07,1.118 0.208,1.579 0.138,0.46 0.338,0.853 0.6,1.178 0.262,0.325 0.579,0.572 0.952,0.742 0.373,0.169 0.79,0.254 1.251,0.254 0.622,0 1.16,-0.144 1.615,-0.433 C 0.136,2.514 0.481,2.1 0.717,1.561 0.951,1.021 1.069,0.395 1.069,-0.319 Z"
             style="fill:#00adef;fill-opacity:1;fill-rule:nonzero;stroke:none"
             id="path1077"
             inkscape:connector-curvature="0" /></g><g
           id="g1079"
           transform="translate(307.6348,755.334)"><path
             d="m 0,0 v 0.791 h -2.058 c -1.09,0 -1.636,-0.431 -1.636,-1.291 0,-0.421 0.135,-0.734 0.407,-0.939 0.271,-0.206 0.695,-0.309 1.272,-0.309 0.369,0 0.682,0.031 0.939,0.091 0.257,0.06 0.492,0.192 0.706,0.395 C -0.123,-1.025 0,-0.604 0,0 M 1.069,-2.584 H 0 v 0.698 c -0.296,-0.296 -0.602,-0.501 -0.918,-0.614 -0.315,-0.114 -0.716,-0.171 -1.201,-0.171 -0.496,0 -0.908,0.052 -1.238,0.156 -0.331,0.104 -0.61,0.275 -0.838,0.513 -0.369,0.368 -0.554,0.865 -0.554,1.491 0,0.655 0.22,1.17 0.659,1.545 0.44,0.376 1.068,0.564 1.883,0.564 L 0,1.598 V 2.304 C 0,2.852 -0.146,3.256 -0.439,3.518 -0.733,3.78 -1.212,3.911 -1.876,3.911 -2.337,3.911 -2.704,3.849 -2.979,3.725 -3.252,3.602 -3.501,3.385 -3.724,3.074 l -0.739,0.67 c 0.208,0.271 0.439,0.488 0.692,0.651 0.251,0.162 0.532,0.276 0.84,0.341 0.308,0.066 0.663,0.098 1.067,0.098 0.505,0 0.939,-0.052 1.302,-0.156 C -0.197,4.574 0.106,4.418 0.349,4.212 0.592,4.006 0.772,3.754 0.891,3.456 1.01,3.158 1.069,2.803 1.069,2.391 Z"
             style="fill:#00adef;fill-opacity:1;fill-rule:nonzero;stroke:none"
             id="path1081"
             inkscape:connector-curvature="0" /></g><g
           id="g1083"
           transform="translate(315.8379,759.4849)"><path
             d="m 0,0 -0.785,-0.807 c -0.199,0.199 -0.392,0.338 -0.578,0.418 -0.188,0.08 -0.419,0.12 -0.696,0.12 -0.348,0 -0.656,-0.086 -0.922,-0.258 C -3.249,-0.7 -3.453,-0.934 -3.597,-1.229 -3.739,-1.525 -3.811,-1.862 -3.811,-2.24 V -6.735 H -4.88 v 7.331 h 1.069 v -0.894 c 0.204,0.305 0.491,0.545 0.862,0.72 0.371,0.174 0.767,0.262 1.189,0.262 C -1.047,0.684 -0.461,0.456 0,0"
             style="fill:#00adef;fill-opacity:1;fill-rule:nonzero;stroke:none"
             id="path1085"
             inkscape:connector-curvature="0" /></g><g
           id="g1087"
           transform="translate(322.1211,753.7466)"><path
             d="m 0,0 c -0.368,-0.398 -0.734,-0.678 -1.099,-0.84 -0.363,-0.162 -0.801,-0.244 -1.316,-0.244 -0.455,0 -0.884,0.08 -1.283,0.24 -0.401,0.16 -0.746,0.397 -1.036,0.709 -0.291,0.313 -0.518,0.706 -0.681,1.178 -0.162,0.473 -0.243,1.015 -0.243,1.626 0,0.805 0.14,1.491 0.422,2.058 0.281,0.567 0.666,0.992 1.156,1.273 0.489,0.281 1.045,0.422 1.665,0.422 0.519,0 0.959,-0.081 1.32,-0.244 C -0.733,6.016 -0.368,5.733 0,5.331 L -0.728,4.647 c -0.271,0.301 -0.53,0.513 -0.778,0.637 -0.247,0.123 -0.55,0.185 -0.909,0.185 -0.741,0 -1.307,-0.279 -1.694,-0.836 -0.17,-0.238 -0.292,-0.51 -0.368,-0.819 -0.075,-0.308 -0.112,-0.689 -0.112,-1.145 0,-0.451 0.037,-0.83 0.112,-1.138 0.076,-0.308 0.198,-0.586 0.368,-0.833 0.392,-0.552 0.958,-0.829 1.694,-0.829 0.35,0 0.646,0.062 0.892,0.185 0.244,0.124 0.509,0.339 0.795,0.644 z"
             style="fill:#00adef;fill-opacity:1;fill-rule:nonzero;stroke:none"
             id="path1089"
             inkscape:connector-curvature="0" /></g><g
           id="g1091"
           transform="translate(329.5596,752.75)"><path
             d="m 0,0 h -1.069 v 4.531 c 0,0.422 -0.072,0.777 -0.215,1.066 -0.144,0.288 -0.349,0.505 -0.615,0.651 -0.268,0.145 -0.586,0.218 -0.955,0.218 -0.569,0 -1.017,-0.167 -1.345,-0.499 C -4.527,5.635 -4.69,5.157 -4.69,4.531 V 0 h -1.07 v 10.604 h 1.07 v -4.08 c 0.523,0.596 1.207,0.894 2.05,0.894 0.543,0 1.013,-0.11 1.411,-0.331 0.398,-0.22 0.702,-0.535 0.913,-0.945 C -0.105,5.732 0,5.253 0,4.706 Z"
             style="fill:#00adef;fill-opacity:1;fill-rule:nonzero;stroke:none"
             id="path1093"
             inkscape:connector-curvature="0" /></g><g
           id="g1095"
           transform="translate(339.6592,756.4155)"><path
             d="M 0,0 C 0,0.533 -0.037,0.984 -0.112,1.353 -0.188,1.721 -0.344,2.024 -0.582,2.262 -0.94,2.621 -1.387,2.8 -1.92,2.8 -2.438,2.8 -2.883,2.621 -3.251,2.262 -3.493,2.015 -3.652,1.703 -3.728,1.327 -3.803,0.952 -3.84,0.509 -3.84,0 c 0,-0.514 0.037,-0.958 0.112,-1.331 0.076,-0.373 0.235,-0.684 0.477,-0.931 0.358,-0.359 0.803,-0.538 1.331,-0.538 0.543,0 0.989,0.179 1.338,0.538 0.243,0.242 0.4,0.546 0.473,0.909 C -0.036,-0.989 0,-0.538 0,0 M 1.069,0 C 1.069,-0.427 1.046,-0.806 1,-1.138 0.954,-1.47 0.864,-1.791 0.731,-2.098 0.599,-2.406 0.413,-2.681 0.176,-2.924 c -0.552,-0.553 -1.25,-0.829 -2.092,-0.829 -0.838,0 -1.538,0.276 -2.1,0.829 -0.237,0.243 -0.422,0.514 -0.551,0.815 -0.131,0.3 -0.221,0.621 -0.27,0.96 -0.048,0.339 -0.072,0.722 -0.072,1.149 0,0.645 0.063,1.204 0.188,1.676 0.126,0.473 0.362,0.887 0.705,1.241 0.557,0.557 1.257,0.836 2.1,0.836 0.847,0 1.545,-0.279 2.092,-0.836 C 0.52,2.572 0.755,2.161 0.881,1.684 1.006,1.206 1.069,0.645 1.069,0"
             style="fill:#00adef;fill-opacity:1;fill-rule:nonzero;stroke:none"
             id="path1097"
             inkscape:connector-curvature="0" /></g><g
           id="g1099"
           transform="translate(348.4287,752.75)"><path
             d="m 0,0 h -1.069 v 4.517 c 0,0.319 -0.043,0.606 -0.131,0.858 -0.088,0.252 -0.205,0.456 -0.354,0.611 -0.148,0.155 -0.331,0.274 -0.55,0.356 -0.218,0.082 -0.473,0.124 -0.765,0.124 -0.564,0 -1.008,-0.169 -1.333,-0.506 C -4.528,5.623 -4.69,5.142 -4.69,4.517 V 0 h -1.07 v 7.331 h 1.07 V 6.524 c 0.266,0.3 0.569,0.525 0.909,0.673 0.339,0.147 0.719,0.221 1.141,0.221 0.795,0 1.421,-0.228 1.876,-0.683 C -0.254,6.24 0,5.559 0,4.691 Z"
             style="fill:#00adef;fill-opacity:1;fill-rule:nonzero;stroke:none"
             id="path1101"
             inkscape:connector-curvature="0" /></g><path
           d="m 256.671,739.821 h -1.069 v 7.331 h 1.069 z m 0.204,10.08 c 0,-0.131 -0.034,-0.252 -0.101,-0.363 -0.068,-0.112 -0.157,-0.201 -0.268,-0.266 -0.111,-0.065 -0.234,-0.098 -0.369,-0.098 -0.13,0 -0.251,0.033 -0.362,0.098 -0.111,0.065 -0.199,0.154 -0.264,0.266 -0.065,0.111 -0.098,0.232 -0.098,0.363 0,0.136 0.033,0.26 0.098,0.371 0.065,0.112 0.153,0.2 0.264,0.266 0.111,0.065 0.232,0.098 0.362,0.098 0.096,0 0.192,-0.02 0.286,-0.058 0.094,-0.039 0.175,-0.094 0.242,-0.164 0.068,-0.07 0.12,-0.149 0.156,-0.236 0.036,-0.088 0.054,-0.18 0.054,-0.277"
           style="fill:#00adef;fill-opacity:1;fill-rule:nonzero;stroke:none"
           id="path1103"
           inkscape:connector-curvature="0" /><g
           id="g1105"
           transform="translate(264.7729,739.8208)"><path
             d="m 0,0 h -1.069 v 4.517 c 0,0.319 -0.044,0.606 -0.132,0.858 C -1.288,5.627 -1.406,5.831 -1.554,5.986 -1.702,6.141 -1.886,6.26 -2.104,6.342 -2.323,6.424 -2.578,6.466 -2.87,6.466 -3.433,6.466 -3.877,6.297 -4.203,5.96 -4.529,5.623 -4.691,5.142 -4.691,4.517 V 0 H -5.76 v 7.331 h 1.069 V 6.524 c 0.266,0.3 0.569,0.525 0.909,0.673 0.339,0.147 0.72,0.221 1.142,0.221 0.795,0 1.42,-0.228 1.876,-0.683 C -0.255,6.24 0,5.559 0,4.691 Z"
             style="fill:#00adef;fill-opacity:1;fill-rule:nonzero;stroke:none"
             id="path1107"
             inkscape:connector-curvature="0" /></g><g
           id="g1109"
           transform="translate(269.8184,739.8208)"><path
             d="m 0,0 h -0.756 c -0.601,0 -1.065,0.185 -1.39,0.556 -0.324,0.37 -0.487,0.839 -0.487,1.405 V 6.458 H -3.557 V 7.28 h 0.924 v 2.299 h 1.07 V 7.28 H 0 V 6.458 H -1.563 V 1.991 c 0,-0.711 0.334,-1.067 1.003,-1.067 H 0 Z"
             style="fill:#00adef;fill-opacity:1;fill-rule:nonzero;stroke:none"
             id="path1111"
             inkscape:connector-curvature="0" /></g><g
           id="g1113"
           transform="translate(276.1226,744.0029)"><path
             d="M 0,0 C -0.024,0.514 -0.1,0.921 -0.226,1.222 -0.361,1.556 -0.585,1.824 -0.898,2.025 -1.211,2.227 -1.556,2.327 -1.935,2.327 -2.318,2.327 -2.663,2.229 -2.971,2.033 -3.279,1.836 -3.505,1.566 -3.651,1.222 -3.768,0.926 -3.843,0.519 -3.876,0 Z m 1.069,-0.808 h -4.945 c 0,-0.802 0.188,-1.423 0.563,-1.863 0.376,-0.44 0.908,-0.66 1.597,-0.66 0.407,0 0.754,0.063 1.04,0.189 0.286,0.126 0.581,0.339 0.887,0.64 L 0.938,-3.143 C 0.541,-3.54 0.144,-3.827 -0.251,-4.004 -0.646,-4.181 -1.145,-4.27 -1.746,-4.27 c -0.644,0 -1.208,0.134 -1.691,0.4 -0.482,0.267 -0.854,0.682 -1.116,1.245 -0.261,0.562 -0.393,1.265 -0.393,2.108 0,0.592 0.07,1.118 0.208,1.579 0.138,0.46 0.338,0.853 0.6,1.178 0.262,0.325 0.579,0.572 0.952,0.742 0.374,0.169 0.791,0.254 1.251,0.254 0.621,0 1.159,-0.144 1.615,-0.433 C 0.136,2.514 0.481,2.1 0.716,1.561 0.952,1.021 1.069,0.395 1.069,-0.319 Z"
             style="fill:#00adef;fill-opacity:1;fill-rule:nonzero;stroke:none"
             id="path1115"
             inkscape:connector-curvature="0" /></g><g
           id="g1117"
           transform="translate(283.998,746.5557)"><path
             d="m 0,0 -0.785,-0.807 c -0.199,0.199 -0.392,0.338 -0.579,0.418 -0.186,0.08 -0.418,0.12 -0.694,0.12 -0.349,0 -0.657,-0.086 -0.924,-0.258 C -3.249,-0.7 -3.454,-0.934 -3.596,-1.229 -3.739,-1.525 -3.811,-1.862 -3.811,-2.24 V -6.735 H -4.88 v 7.331 h 1.069 v -0.894 c 0.204,0.305 0.491,0.545 0.862,0.72 0.371,0.174 0.767,0.262 1.189,0.262 0.713,0 1.3,-0.228 1.76,-0.684"
             style="fill:#00adef;fill-opacity:1;fill-rule:nonzero;stroke:none"
             id="path1119"
             inkscape:connector-curvature="0" /></g><g
           id="g1121"
           transform="translate(290.7905,739.8208)"><path
             d="m 0,0 h -1.069 v 4.517 c 0,0.319 -0.044,0.606 -0.132,0.858 C -1.288,5.627 -1.406,5.831 -1.554,5.986 -1.702,6.141 -1.886,6.26 -2.104,6.342 -2.323,6.424 -2.578,6.466 -2.87,6.466 -3.433,6.466 -3.877,6.297 -4.203,5.96 -4.529,5.623 -4.691,5.142 -4.691,4.517 V 0 H -5.76 v 7.331 h 1.069 V 6.524 c 0.266,0.3 0.569,0.525 0.909,0.673 0.339,0.147 0.72,0.221 1.142,0.221 0.795,0 1.42,-0.228 1.876,-0.683 C -0.255,6.24 0,5.559 0,4.691 Z"
             style="fill:#00adef;fill-opacity:1;fill-rule:nonzero;stroke:none"
             id="path1123"
             inkscape:connector-curvature="0" /></g><g
           id="g1125"
           transform="translate(297.5674,744.0029)"><path
             d="m 0,0 c -0.024,0.514 -0.1,0.921 -0.226,1.222 -0.135,0.334 -0.36,0.602 -0.672,0.803 -0.313,0.202 -0.659,0.302 -1.037,0.302 -0.383,0 -0.729,-0.098 -1.037,-0.294 C -3.279,1.836 -3.506,1.566 -3.651,1.222 -3.768,0.926 -3.843,0.519 -3.877,0 Z m 1.068,-0.808 h -4.945 c 0,-0.802 0.188,-1.423 0.564,-1.863 0.375,-0.44 0.908,-0.66 1.596,-0.66 0.407,0 0.754,0.063 1.04,0.189 0.286,0.126 0.582,0.339 0.888,0.64 L 0.938,-3.143 C 0.54,-3.54 0.144,-3.827 -0.251,-4.004 -0.646,-4.181 -1.145,-4.27 -1.746,-4.27 c -0.645,0 -1.209,0.134 -1.691,0.4 -0.482,0.267 -0.855,0.682 -1.116,1.245 -0.262,0.562 -0.393,1.265 -0.393,2.108 0,0.592 0.069,1.118 0.207,1.579 0.138,0.46 0.339,0.853 0.6,1.178 0.262,0.325 0.579,0.572 0.953,0.742 0.373,0.169 0.79,0.254 1.251,0.254 0.621,0 1.159,-0.144 1.615,-0.433 C 0.136,2.514 0.48,2.1 0.716,1.561 0.951,1.021 1.068,0.395 1.068,-0.319 Z"
             style="fill:#00adef;fill-opacity:1;fill-rule:nonzero;stroke:none"
             id="path1127"
             inkscape:connector-curvature="0" /></g><g
           id="g1129"
           transform="translate(303.3701,739.8208)"><path
             d="m 0,0 h -0.757 c -0.601,0 -1.064,0.185 -1.389,0.556 -0.325,0.37 -0.487,0.839 -0.487,1.405 V 6.458 H -3.557 V 7.28 h 0.924 v 2.299 h 1.069 V 7.28 H 0 V 6.458 H -1.564 V 1.991 c 0,-0.711 0.335,-1.067 1.003,-1.067 H 0 Z"
             style="fill:#00adef;fill-opacity:1;fill-rule:nonzero;stroke:none"
             id="path1131"
             inkscape:connector-curvature="0" /></g><path
           d="m 309.542,739.821 h -1.069 v 7.331 h 1.069 z m 0.203,10.08 c 0,-0.131 -0.034,-0.252 -0.101,-0.363 -0.068,-0.112 -0.157,-0.201 -0.268,-0.266 -0.111,-0.065 -0.234,-0.098 -0.369,-0.098 -0.13,0 -0.251,0.033 -0.361,0.098 -0.112,0.065 -0.2,0.154 -0.265,0.266 -0.066,0.111 -0.098,0.232 -0.098,0.363 0,0.136 0.032,0.26 0.098,0.371 0.065,0.112 0.153,0.2 0.265,0.266 0.11,0.065 0.231,0.098 0.361,0.098 0.097,0 0.192,-0.02 0.286,-0.058 0.094,-0.039 0.175,-0.094 0.242,-0.164 0.068,-0.07 0.119,-0.149 0.155,-0.236 0.037,-0.088 0.055,-0.18 0.055,-0.277"
           style="fill:#00adef;fill-opacity:1;fill-rule:nonzero;stroke:none"
           id="path1133"
           inkscape:connector-curvature="0" /><g
           id="g1135"
           transform="translate(317.6426,739.8208)"><path
             d="m 0,0 h -1.069 v 4.517 c 0,0.319 -0.043,0.606 -0.131,0.858 -0.088,0.252 -0.205,0.456 -0.354,0.611 -0.148,0.155 -0.331,0.274 -0.55,0.356 -0.218,0.082 -0.473,0.124 -0.765,0.124 -0.564,0 -1.008,-0.169 -1.333,-0.506 C -4.528,5.623 -4.69,5.142 -4.69,4.517 V 0 h -1.07 v 7.331 h 1.07 V 6.524 c 0.266,0.3 0.569,0.525 0.909,0.673 0.339,0.147 0.719,0.221 1.141,0.221 0.795,0 1.421,-0.228 1.876,-0.683 C -0.254,6.24 0,5.559 0,4.691 Z"
             style="fill:#00adef;fill-opacity:1;fill-rule:nonzero;stroke:none"
             id="path1137"
             inkscape:connector-curvature="0" /></g><g
           id="g1139"
           transform="translate(322.6895,739.8208)"><path
             d="m 0,0 h -0.757 c -0.601,0 -1.064,0.185 -1.389,0.556 -0.325,0.37 -0.487,0.839 -0.487,1.405 V 6.458 H -3.557 V 7.28 h 0.924 v 2.299 h 1.069 V 7.28 H 0 V 6.458 H -1.564 V 1.991 c 0,-0.711 0.335,-1.067 1.003,-1.067 H 0 Z"
             style="fill:#00adef;fill-opacity:1;fill-rule:nonzero;stroke:none"
             id="path1141"
             inkscape:connector-curvature="0" /></g><g
           id="g1143"
           transform="translate(328.9932,744.0029)"><path
             d="M 0,0 C -0.024,0.514 -0.1,0.921 -0.226,1.222 -0.361,1.556 -0.585,1.824 -0.898,2.025 -1.211,2.227 -1.557,2.327 -1.935,2.327 -2.317,2.327 -2.663,2.229 -2.971,2.033 -3.279,1.836 -3.506,1.566 -3.651,1.222 -3.768,0.926 -3.843,0.519 -3.876,0 Z m 1.069,-0.808 h -4.945 c 0,-0.802 0.188,-1.423 0.563,-1.863 0.375,-0.44 0.908,-0.66 1.596,-0.66 0.408,0 0.754,0.063 1.04,0.189 0.286,0.126 0.582,0.339 0.888,0.64 L 0.938,-3.143 C 0.541,-3.54 0.145,-3.827 -0.251,-4.004 -0.646,-4.181 -1.145,-4.27 -1.745,-4.27 c -0.646,0 -1.209,0.134 -1.692,0.4 -0.482,0.267 -0.854,0.682 -1.116,1.245 -0.261,0.562 -0.392,1.265 -0.392,2.108 0,0.592 0.068,1.118 0.207,1.579 0.137,0.46 0.338,0.853 0.599,1.178 0.263,0.325 0.58,0.572 0.953,0.742 0.373,0.169 0.79,0.254 1.251,0.254 0.622,0 1.16,-0.144 1.615,-0.433 C 0.136,2.514 0.481,2.1 0.717,1.561 0.951,1.021 1.069,0.395 1.069,-0.319 Z"
             style="fill:#00adef;fill-opacity:1;fill-rule:nonzero;stroke:none"
             id="path1145"
             inkscape:connector-curvature="0" /></g><g
           id="g1147"
           transform="translate(336.8682,746.5557)"><path
             d="m 0,0 -0.785,-0.807 c -0.199,0.199 -0.392,0.338 -0.578,0.418 -0.188,0.08 -0.419,0.12 -0.696,0.12 -0.348,0 -0.656,-0.086 -0.922,-0.258 C -3.249,-0.7 -3.453,-0.934 -3.597,-1.229 -3.739,-1.525 -3.811,-1.862 -3.811,-2.24 V -6.735 H -4.88 v 7.331 h 1.069 v -0.894 c 0.204,0.305 0.491,0.545 0.862,0.72 0.371,0.174 0.767,0.262 1.189,0.262 C -1.047,0.684 -0.461,0.456 0,0"
             style="fill:#00adef;fill-opacity:1;fill-rule:nonzero;stroke:none"
             id="path1149"
             inkscape:connector-curvature="0" /></g><g
           id="g1151"
           transform="translate(343.0498,747.1519)"><path
             d="M 0,0 -2.698,-7.331 H -3.651 L -6.328,0 h 1.156 L -3.171,-5.884 -1.164,0 Z"
             style="fill:#00adef;fill-opacity:1;fill-rule:nonzero;stroke:none"
             id="path1153"
             inkscape:connector-curvature="0" /></g><g
           id="g1155"
           transform="translate(348.7354,744.0029)"><path
             d="M 0,0 C -0.024,0.514 -0.1,0.921 -0.226,1.222 -0.361,1.556 -0.585,1.824 -0.898,2.025 -1.211,2.227 -1.557,2.327 -1.935,2.327 -2.317,2.327 -2.663,2.229 -2.971,2.033 -3.279,1.836 -3.506,1.566 -3.651,1.222 -3.768,0.926 -3.843,0.519 -3.876,0 Z m 1.069,-0.808 h -4.945 c 0,-0.802 0.188,-1.423 0.563,-1.863 0.375,-0.44 0.908,-0.66 1.596,-0.66 0.408,0 0.754,0.063 1.04,0.189 0.286,0.126 0.582,0.339 0.888,0.64 L 0.938,-3.143 C 0.541,-3.54 0.145,-3.827 -0.251,-4.004 -0.646,-4.181 -1.145,-4.27 -1.745,-4.27 c -0.646,0 -1.209,0.134 -1.692,0.4 -0.482,0.267 -0.854,0.682 -1.116,1.245 -0.261,0.562 -0.392,1.265 -0.392,2.108 0,0.592 0.068,1.118 0.207,1.579 0.137,0.46 0.338,0.853 0.599,1.178 0.263,0.325 0.58,0.572 0.953,0.742 0.373,0.169 0.79,0.254 1.251,0.254 0.622,0 1.16,-0.144 1.615,-0.433 C 0.136,2.514 0.481,2.1 0.717,1.561 0.951,1.021 1.069,0.395 1.069,-0.319 Z"
             style="fill:#00adef;fill-opacity:1;fill-rule:nonzero;stroke:none"
             id="path1157"
             inkscape:connector-curvature="0" /></g><g
           id="g1159"
           transform="translate(357.4912,739.8208)"><path
             d="m 0,0 h -1.069 v 4.517 c 0,0.319 -0.043,0.606 -0.131,0.858 -0.088,0.252 -0.205,0.456 -0.354,0.611 -0.148,0.155 -0.331,0.274 -0.55,0.356 -0.218,0.082 -0.473,0.124 -0.765,0.124 -0.564,0 -1.008,-0.169 -1.333,-0.506 C -4.528,5.623 -4.69,5.142 -4.69,4.517 V 0 h -1.07 v 7.331 h 1.07 V 6.524 c 0.266,0.3 0.569,0.525 0.909,0.673 0.339,0.147 0.719,0.221 1.141,0.221 0.795,0 1.421,-0.228 1.876,-0.683 C -0.254,6.24 0,5.559 0,4.691 Z"
             style="fill:#00adef;fill-opacity:1;fill-rule:nonzero;stroke:none"
             id="path1161"
             inkscape:connector-curvature="0" /></g><g
           id="g1163"
           transform="translate(362.5381,739.8208)"><path
             d="m 0,0 h -0.757 c -0.601,0 -1.064,0.185 -1.389,0.556 -0.325,0.37 -0.487,0.839 -0.487,1.405 V 6.458 H -3.557 V 7.28 h 0.924 v 2.299 h 1.069 V 7.28 H 0 V 6.458 H -1.564 V 1.991 c 0,-0.711 0.335,-1.067 1.003,-1.067 H 0 Z"
             style="fill:#00adef;fill-opacity:1;fill-rule:nonzero;stroke:none"
             id="path1165"
             inkscape:connector-curvature="0" /></g><path
           d="m 365.373,739.821 h -1.069 v 7.331 h 1.069 z m 0.203,10.08 c 0,-0.131 -0.034,-0.252 -0.101,-0.363 -0.068,-0.112 -0.157,-0.201 -0.268,-0.266 -0.111,-0.065 -0.234,-0.098 -0.369,-0.098 -0.13,0 -0.251,0.033 -0.361,0.098 -0.112,0.065 -0.2,0.154 -0.265,0.266 -0.066,0.111 -0.098,0.232 -0.098,0.363 0,0.136 0.032,0.26 0.098,0.371 0.065,0.112 0.153,0.2 0.265,0.266 0.11,0.065 0.231,0.098 0.361,0.098 0.097,0 0.192,-0.02 0.286,-0.058 0.094,-0.039 0.175,-0.094 0.242,-0.164 0.068,-0.07 0.119,-0.149 0.155,-0.236 0.037,-0.088 0.055,-0.18 0.055,-0.277"
           style="fill:#00adef;fill-opacity:1;fill-rule:nonzero;stroke:none"
           id="path1167"
           inkscape:connector-curvature="0" /><g
           id="g1169"
           transform="translate(372.2363,743.4863)"><path
             d="M 0,0 C 0,0.533 -0.037,0.984 -0.112,1.353 -0.188,1.721 -0.344,2.024 -0.582,2.262 -0.94,2.621 -1.387,2.8 -1.92,2.8 -2.438,2.8 -2.883,2.621 -3.251,2.262 -3.493,2.015 -3.652,1.703 -3.728,1.327 -3.803,0.952 -3.84,0.509 -3.84,0 c 0,-0.514 0.037,-0.958 0.112,-1.331 0.076,-0.373 0.235,-0.684 0.477,-0.931 0.358,-0.359 0.803,-0.538 1.331,-0.538 0.543,0 0.989,0.179 1.338,0.538 0.243,0.242 0.4,0.546 0.473,0.909 C -0.036,-0.989 0,-0.538 0,0 M 1.069,0 C 1.069,-0.427 1.046,-0.806 1,-1.138 0.954,-1.47 0.864,-1.791 0.731,-2.098 0.599,-2.406 0.413,-2.681 0.176,-2.924 c -0.552,-0.553 -1.25,-0.829 -2.092,-0.829 -0.838,0 -1.538,0.276 -2.1,0.829 -0.237,0.243 -0.422,0.514 -0.551,0.815 -0.131,0.3 -0.221,0.621 -0.27,0.96 -0.048,0.339 -0.072,0.722 -0.072,1.149 0,0.645 0.063,1.204 0.188,1.676 0.126,0.473 0.362,0.887 0.705,1.241 0.557,0.557 1.257,0.836 2.1,0.836 0.847,0 1.545,-0.279 2.092,-0.836 C 0.52,2.572 0.755,2.161 0.881,1.684 1.006,1.206 1.069,0.645 1.069,0"
             style="fill:#00adef;fill-opacity:1;fill-rule:nonzero;stroke:none"
             id="path1171"
             inkscape:connector-curvature="0" /></g><g
           id="g1173"
           transform="translate(381.0068,739.8208)"><path
             d="m 0,0 h -1.069 v 4.517 c 0,0.319 -0.043,0.606 -0.131,0.858 -0.088,0.252 -0.205,0.456 -0.354,0.611 -0.148,0.155 -0.331,0.274 -0.55,0.356 -0.218,0.082 -0.473,0.124 -0.765,0.124 -0.564,0 -1.008,-0.169 -1.333,-0.506 C -4.528,5.623 -4.69,5.142 -4.69,4.517 V 0 h -1.07 v 7.331 h 1.07 V 6.524 c 0.266,0.3 0.569,0.525 0.909,0.673 0.339,0.147 0.719,0.221 1.141,0.221 0.795,0 1.421,-0.228 1.876,-0.683 C -0.254,6.24 0,5.559 0,4.691 Z"
             style="fill:#00adef;fill-opacity:1;fill-rule:nonzero;stroke:none"
             id="path1175"
             inkscape:connector-curvature="0" /></g><g
           id="g1177"
           transform="translate(388.5264,741.9663)"><path
             d="m 0,0 c 0,-0.465 -0.124,-0.865 -0.371,-1.2 -0.247,-0.335 -0.594,-0.591 -1.04,-0.767 -0.446,-0.178 -0.968,-0.266 -1.564,-0.266 -0.635,0 -1.198,0.083 -1.687,0.248 -0.49,0.164 -0.931,0.433 -1.324,0.807 l 0.713,0.713 c 0.533,-0.563 1.294,-0.844 2.284,-0.844 0.61,0 1.088,0.109 1.432,0.327 0.344,0.218 0.517,0.541 0.517,0.967 0,0.321 -0.099,0.57 -0.295,0.749 -0.196,0.18 -0.506,0.287 -0.927,0.321 L -3.47,1.164 c -1.459,0.121 -2.188,0.775 -2.188,1.963 0,0.66 0.25,1.182 0.752,1.568 0.502,0.385 1.15,0.578 1.946,0.578 0.528,0 1.021,-0.067 1.476,-0.2 0.456,-0.134 0.841,-0.331 1.157,-0.593 L -1.025,3.782 c -0.51,0.388 -1.16,0.582 -1.95,0.582 -0.529,0 -0.934,-0.107 -1.218,-0.32 -0.284,-0.213 -0.425,-0.509 -0.425,-0.887 0,-0.645 0.429,-1.002 1.287,-1.07 L -2.16,1.979 C -1.467,1.915 -0.934,1.731 -0.561,1.425 -0.187,1.12 0,0.645 0,0"
             style="fill:#00adef;fill-opacity:1;fill-rule:nonzero;stroke:none"
             id="path1179"
             inkscape:connector-curvature="0" /></g></g></g><g
       id="g1181"><g
         id="g1183"
         clip-path="url(#clipPath1187)"><g
           id="g1189"
           transform="translate(211.2339,739.3472)"><path
             d="M 0,0 C -5.331,0 -10.141,0.585 -14.431,4.875 L -8.905,10.4 C -6.11,7.605 -2.47,7.215 0.13,7.215 c 2.925,0 5.98,0.975 5.98,3.511 0,1.69 -0.91,2.859 -3.576,3.12 l -5.33,0.52 c -6.109,0.585 -9.386,3.25 -9.88,9.49 -0.553,6.998 6.175,10.79 13.066,10.79 5.265,0 9.685,-0.91 12.935,-3.965 l -5.2,-5.265 c -1.95,1.755 -4.94,2.275 -7.865,2.275 -3.38,0 -4.81,-1.56 -4.81,-3.25 0,-1.235 0.52,-2.665 3.51,-2.925 l 5.33,-0.52 C 10.985,20.346 14.365,16.771 14.365,11.05 14.365,3.575 7.995,0 0,0"
             style="fill:#ed127c;fill-opacity:1;fill-rule:nonzero;stroke:none"
             id="path1191"
             inkscape:connector-curvature="0" /></g></g></g></g></svg>