<?xml version="1.0" encoding="UTF-8" standalone="no"?>
<!-- Created with Inkscape (http://www.inkscape.org/) -->

<svg
   xmlns:dc="http://purl.org/dc/elements/1.1/"
   xmlns:cc="http://creativecommons.org/ns#"
   xmlns:rdf="http://www.w3.org/1999/02/22-rdf-syntax-ns#"
   xmlns:svg="http://www.w3.org/2000/svg"
   xmlns="http://www.w3.org/2000/svg"
   xmlns:sodipodi="http://sodipodi.sourceforge.net/DTD/sodipodi-0.dtd"
   xmlns:inkscape="http://www.inkscape.org/namespaces/inkscape"
   version="1.1"
   id="svg876"
   xml:space="preserve"
   width="499.75201"
   height="131.85867"
   viewBox="0 0 499.75201 131.85867"
   sodipodi:docname="HowdyLogo_IngenUndertekst.svg"
   inkscape:version="0.92.3 (2405546, 2018-03-11)"><metadata
     id="metadata882"><rdf:RDF><cc:Work
         rdf:about=""><dc:format>image/svg+xml</dc:format><dc:type
           rdf:resource="http://purl.org/dc/dcmitype/StillImage" /><dc:title></dc:title></cc:Work></rdf:RDF></metadata><defs
     id="defs880"><clipPath
       clipPathUnits="userSpaceOnUse"
       id="clipPath896"><path
         d="M 0,98.894 H 374.814 V 0 H 0 Z"
         id="path894"
         inkscape:connector-curvature="0" /></clipPath></defs><sodipodi:namedview
     pagecolor="#ffffff"
     bordercolor="#666666"
     borderopacity="1"
     objecttolerance="10"
     gridtolerance="10"
     guidetolerance="10"
     inkscape:pageopacity="0"
     inkscape:pageshadow="2"
     inkscape:window-width="1920"
     inkscape:window-height="950"
     id="namedview878"
     showgrid="false"
     inkscape:zoom="1.8818374"
     inkscape:cx="226.77654"
     inkscape:cy="88.955558"
     inkscape:window-x="0"
     inkscape:window-y="27"
     inkscape:window-maximized="1"
     inkscape:current-layer="g884" /><g
     id="g884"
     inkscape:groupmode="layer"
     inkscape:label="HowdyLogo_IngenUndertekst"
     transform="matrix(1.3333333,0,0,-1.3333333,0,131.85867)"><g
       id="g886"
       transform="translate(53.8143,61.3884)"><path
         d="m 0,0 v -21.011 h -30.091 v -8.93 H 0 V -51.252 H 8.933 V 0 Z m -43.074,-51.252 h 8.93 V 0 h -8.93 z"
         style="fill:#5a5e5d;fill-opacity:1;fill-rule:nonzero;stroke:none"
         id="path888"
         inkscape:connector-curvature="0" /></g><g
       id="g890"><g
         id="g892"
         clip-path="url(#clipPath896)"><g
           id="g898"
           transform="translate(239.2835,62.2131)"><path
             d="m 0,0 -26.416,-47.049 c -1.85,-3.353 -3.701,-5.028 -5.551,-5.028 -1.85,0 -3.704,1.675 -5.552,5.028 l -7.204,13.132 -7.354,-13.132 c -1.854,-3.353 -3.704,-5.028 -5.555,-5.028 -1.85,0 -3.701,1.675 -5.551,5.028 L -88.867,0 h 11.48 l 19.982,-37.295 7.204,13.433 L -63.26,0 h 11.484 L -31.743,-37.295 -11.48,0 Z"
             style="fill:#00abe4;fill-opacity:1;fill-rule:nonzero;stroke:none"
             id="path900"
             inkscape:connector-curvature="0" /></g><g
           id="g902"
           transform="translate(300.8158,36.3249)"><path
             d="m 0,0 c 0,-7.556 -2.439,-13.807 -7.316,-18.761 -4.877,-4.951 -11.042,-7.428 -18.499,-7.428 h -28.89 v 51.252 h 28.89 c 7.556,0 13.746,-2.3 18.576,-6.903 C -2.413,13.558 0,7.504 0,0 m -8.93,-0.751 c 0,4.954 -1.589,9.006 -4.765,12.158 -3.178,3.151 -7.217,4.727 -12.12,4.727 h -20.033 v -33.393 h 20.033 c 4.903,0 8.942,1.525 12.12,4.577 3.176,3.052 4.765,7.028 4.765,11.931"
             style="fill:#00abe4;fill-opacity:1;fill-rule:nonzero;stroke:none"
             id="path904"
             inkscape:connector-curvature="0" /></g><g
           id="g906"
           transform="translate(352.5199,61.3884)"><path
             d="M 0,0 -18.087,-25.214 -37.372,0 h -11.483 l 26.115,-34.144 v -17.108 h 8.856 v 16.958 L 11.554,0 Z"
             style="fill:#00abe4;fill-opacity:1;fill-rule:nonzero;stroke:none"
             id="path908"
             inkscape:connector-curvature="0" /></g><g
           id="g910"
           transform="translate(90.1087,26.3859)"><path
             d="M 0,0 7.556,18.131 -7.77,29.356 10.793,30.65 17.482,51.588 c 0,0 -6.475,-12.736 -10.358,-15.543 L 7.083,36.042 c 1.224,1.215 1.984,2.896 1.984,4.753 0,3.695 -2.998,6.689 -6.692,6.689 -3.695,0 -6.693,-2.994 -6.693,-6.689 0,-2.154 1.026,-4.069 2.608,-5.29 l -15.772,-0.968 c 0,0 -8.851,0 -2.807,-3.672 0,0 13.597,-8.201 18.563,-12.085 0,0 4.749,-2.374 2.158,-7.124 L -9.93,-5.612 c 0,0 3.669,-2.589 7.773,-2.806 0,0 14.027,8.632 20.071,17.268 z"
             style="fill:#5a5e5d;fill-opacity:1;fill-rule:nonzero;stroke:none"
             id="path912"
             inkscape:connector-curvature="0" /></g><g
           id="g914"
           transform="translate(143.8831,48.0588)"><path
             d="M 0,0 C -0.7,1.892 -1.886,3.532 -3.468,4.919 -2.876,4.11 -2.4,3.238 -2.052,2.298 0.371,-4.27 -4.091,-12.455 -12.778,-19.282 l -0.016,0.026 c -0.396,-0.329 -0.796,-0.642 -1.195,-0.95 -4.369,-3.228 -9.691,-6.114 -15.671,-8.316 -18.946,-6.99 -37.308,-4.522 -41.008,5.51 -2.024,5.485 0.76,12.091 6.785,18.096 -8.713,-7.226 -13.088,-15.692 -10.563,-22.542 4.014,-10.882 23.935,-13.561 44.492,-5.98 4.197,1.547 8.096,3.404 11.609,5.469 1.099,-1.071 1.741,-1.691 1.741,-1.691 1.899,-1.943 7.898,-6.628 9.02,-5.826 3.02,2.157 -0.815,8.85 -0.815,8.85 l -2.35,3.941 C -1.911,-15.437 2.544,-6.897 0,0 m -1.278,14.373 -16.384,0.144 c 1.902,1.179 3.171,3.282 3.171,5.686 0,3.694 -2.995,6.693 -6.689,6.693 -3.695,0 -6.693,-2.999 -6.693,-6.693 0,-2.362 1.224,-4.433 3.068,-5.622 l -1.08,0.009 c -3.883,2.806 -10.189,26.109 -10.189,26.109 l 5.225,-30.213 19.858,-1.294 -15.325,-11.225 7.555,-18.131 -27.892,22.235 c 4.001,-5.715 15.868,-17.76 23.437,-25.255 4.343,1.936 7.444,4.203 9.31,5.797 l -5.286,8.883 c -2.589,4.746 2.157,7.12 2.157,7.12 4.964,3.887 18.563,12.088 18.563,12.088 6.044,3.669 -2.806,3.669 -2.806,3.669"
             style="fill:#00abe4;fill-opacity:1;fill-rule:nonzero;stroke:none"
             id="path916"
             inkscape:connector-curvature="0" /></g></g></g></g></svg>