<?xml version="1.0" encoding="UTF-8" standalone="no"?>
<!-- Created with Inkscape (http://www.inkscape.org/) -->

<svg
   xmlns:dc="http://purl.org/dc/elements/1.1/"
   xmlns:cc="http://creativecommons.org/ns#"
   xmlns:rdf="http://www.w3.org/1999/02/22-rdf-syntax-ns#"
   xmlns:svg="http://www.w3.org/2000/svg"
   xmlns="http://www.w3.org/2000/svg"
   xmlns:sodipodi="http://sodipodi.sourceforge.net/DTD/sodipodi-0.dtd"
   xmlns:inkscape="http://www.inkscape.org/namespaces/inkscape"
   version="1.1"
   id="svg982"
   xml:space="preserve"
   width="275.58667"
   height="82.453331"
   viewBox="0 0 275.58667 82.453331"
   sodipodi:docname="mental_health_services.svg"
   inkscape:version="0.92.3 (2405546, 2018-03-11)"><metadata
     id="metadata988"><rdf:RDF><cc:Work
         rdf:about=""><dc:format>image/svg+xml</dc:format><dc:type
           rdf:resource="http://purl.org/dc/dcmitype/StillImage" /><dc:title></dc:title></cc:Work></rdf:RDF></metadata><defs
     id="defs986"><clipPath
       clipPathUnits="userSpaceOnUse"
       id="clipPath1040"><path
         d="M 0,0 H 2067 V 618 H 0 Z"
         id="path1038"
         inkscape:connector-curvature="0" /></clipPath><clipPath
       clipPathUnits="userSpaceOnUse"
       id="clipPath1046"><path
         d="M 412.219,618.402 V 412.816 H 206.016 V 618.402 H 0 V 0 H 206.016 V 206.27 H 412.219 V 0 H 618.27 v 618.402 z"
         id="path1044"
         inkscape:connector-curvature="0" /></clipPath><radialGradient
       fx="0"
       fy="0"
       cx="0"
       cy="0"
       r="1"
       gradientUnits="userSpaceOnUse"
       gradientTransform="matrix(703.694,0,0,-703.694,632.246,-21.397)"
       spreadMethod="pad"
       id="radialGradient1052"><stop
         style="stop-opacity:1;stop-color:#c6e9aa"
         offset="0"
         id="stop1048" /><stop
         style="stop-opacity:1;stop-color:#5dc233"
         offset="1"
         id="stop1050" /></radialGradient></defs><sodipodi:namedview
     pagecolor="#ffffff"
     bordercolor="#666666"
     borderopacity="1"
     objecttolerance="10"
     gridtolerance="10"
     guidetolerance="10"
     inkscape:pageopacity="0"
     inkscape:pageshadow="2"
     inkscape:window-width="1920"
     inkscape:window-height="950"
     id="namedview984"
     showgrid="false"
     inkscape:zoom="2.6198655"
     inkscape:cx="34.861674"
     inkscape:cy="57.768919"
     inkscape:window-x="0"
     inkscape:window-y="27"
     inkscape:window-maximized="1"
     inkscape:current-layer="g992" /><g
     id="g990"
     inkscape:groupmode="layer"
     inkscape:label="ink_ext_XXXXXX"
     transform="matrix(1.3333333,0,0,-1.3333333,0,82.453333)"><g
       id="g992"
       transform="scale(0.1)"><path
         d="m 910.32,371.34 h -30.281 l -23.535,90.875 h -1.633 V 344.773 h -33.316 v 153.555 h 53.828 l 19.566,-81.777 h 0.942 l 19.097,81.777 h 53.828 V 344.773 h -33.32 v 117.442 h -1.641 L 910.32,371.34"
         style="fill:#4e4f51;fill-opacity:1;fill-rule:nonzero;stroke:none"
         id="path994"
         inkscape:connector-curvature="0" /><path
         d="m 1032.41,435.422 c -12.11,0 -15.6,-7.699 -16.31,-19.809 h 31.23 c -0.46,13.52 -4.9,19.809 -14.92,19.809 z m -17.22,-41.723 c 0.44,-14.898 6.99,-22.832 17.93,-22.832 11.89,0 14.68,6.762 16.54,14.688 l 31.46,-5.586 c -5.13,-26.328 -24.47,-37.989 -47.77,-37.989 -34.014,0 -53.362,23.071 -53.362,60.821 0,33.554 18.645,61.269 52.192,61.269 44.04,0 50.8,-34.472 50.8,-70.371 h -67.79"
         style="fill:#4e4f51;fill-opacity:1;fill-rule:nonzero;stroke:none"
         id="path996"
         inkscape:connector-curvature="0" /><path
         d="m 1157.29,344.773 v 75.278 c 0,12.578 -3.94,16.992 -13.49,16.992 -9.57,0 -14.22,-4.414 -14.22,-17.699 v -74.571 h -34.96 v 116.504 h 34.02 v -15.371 h 0.94 c 4.41,11.645 14.43,18.164 27.03,18.164 22.83,0 35.65,-13.277 35.65,-41.933 v -77.364 h -34.97"
         style="fill:#4e4f51;fill-opacity:1;fill-rule:nonzero;stroke:none"
         id="path998"
         inkscape:connector-curvature="0" /><path
         d="m 1249.81,341.98 c -24.94,0 -35.66,13.516 -35.66,34.961 v 57.305 h -14.43 v 27.031 h 14.43 v 15.606 l 29.59,21.445 h 5.37 v -37.051 h 21.9 v -27.031 h -21.9 v -52.422 c 0,-6.523 2.09,-10.957 8.38,-10.957 3.26,0 6.29,0.938 8.63,2.578 l 9.55,-22.382 c -6.29,-5.586 -15.39,-9.083 -25.86,-9.083"
         style="fill:#4e4f51;fill-opacity:1;fill-rule:nonzero;stroke:none"
         id="path1000"
         inkscape:connector-curvature="0" /><path
         d="m 1342.78,394.172 c -22.38,-0.238 -26.11,-4.887 -26.11,-15.371 0,-6.293 1.87,-11.875 11.66,-11.875 11.19,0 14.45,6.051 14.45,14.429 z m 2.33,-49.399 v 10.489 c -7.7,-9.317 -15.16,-13.282 -31.7,-13.282 -20.26,0 -31.68,14.219 -31.68,34.961 0,31.68 23.53,39.375 61.05,39.61 v 5.351 c 0,9.317 -3.96,13.52 -13.04,13.52 -7.93,0 -13.75,-2.793 -14.93,-10.727 l -32.38,6.758 c 1.39,22.133 21.9,32.617 48.69,32.617 34.96,0 46.6,-20.722 46.6,-36.812 v -69.906 c 0,-7.442 0.71,-8.141 1.65,-12.579 h -34.26"
         style="fill:#4e4f51;fill-opacity:1;fill-rule:nonzero;stroke:none"
         id="path1002"
         inkscape:connector-curvature="0" /><path
         d="m 1389.37,344.773 v 153.555 h 34.96 V 344.773 h -34.96"
         style="fill:#4e4f51;fill-opacity:1;fill-rule:nonzero;stroke:none"
         id="path1004"
         inkscape:connector-curvature="0" /><path
         d="m 1575.07,344.773 v 65.254 h -53.36 v -65.254 h -34.94 v 153.555 h 34.94 v -59.18 h 53.36 v 59.18 h 35.88 V 344.773 h -35.88"
         style="fill:#4e4f51;fill-opacity:1;fill-rule:nonzero;stroke:none"
         id="path1006"
         inkscape:connector-curvature="0" /><path
         d="m 1673.39,435.422 c -12.11,0 -15.61,-7.699 -16.31,-19.809 h 31.23 c -0.47,13.52 -4.9,19.809 -14.92,19.809 z m -17.25,-41.723 c 0.47,-14.898 6.99,-22.832 17.95,-22.832 11.88,0 14.69,6.762 16.54,14.688 l 31.45,-5.586 c -5.12,-26.328 -24.45,-37.989 -47.75,-37.989 -34.03,0 -53.36,23.071 -53.36,60.821 0,33.554 18.63,61.269 52.18,61.269 44.05,0 50.81,-34.472 50.81,-70.371 h -67.82"
         style="fill:#4e4f51;fill-opacity:1;fill-rule:nonzero;stroke:none"
         id="path1008"
         inkscape:connector-curvature="0" /><path
         d="m 1792.92,394.172 c -22.36,-0.238 -26.09,-4.887 -26.09,-15.371 0,-6.293 1.85,-11.875 11.64,-11.875 11.19,0 14.45,6.051 14.45,14.429 z m 2.32,-49.399 v 10.489 c -7.67,-9.317 -15.13,-13.282 -31.68,-13.282 -20.27,0 -31.69,14.219 -31.69,34.961 0,31.68 23.53,39.375 61.05,39.61 v 5.351 c 0,9.317 -3.96,13.52 -13.05,13.52 -7.93,0 -13.75,-2.793 -14.9,-10.727 l -32.4,6.758 c 1.4,22.133 21.91,32.617 48.71,32.617 34.94,0 46.6,-20.722 46.6,-36.812 v -69.906 c 0,-7.442 0.68,-8.141 1.62,-12.579 h -34.26"
         style="fill:#4e4f51;fill-opacity:1;fill-rule:nonzero;stroke:none"
         id="path1010"
         inkscape:connector-curvature="0" /><path
         d="m 1840.69,344.773 v 153.555 h 34.94 V 344.773 h -34.94"
         style="fill:#4e4f51;fill-opacity:1;fill-rule:nonzero;stroke:none"
         id="path1012"
         inkscape:connector-curvature="0" /><path
         d="m 1935.52,341.98 c -24.92,0 -35.65,13.516 -35.65,34.961 v 57.305 h -14.45 v 27.031 h 14.45 v 15.606 l 29.59,21.445 h 5.35 v -37.051 h 21.92 v -27.031 h -21.92 v -52.422 c 0,-6.523 2.11,-10.957 8.4,-10.957 3.26,0 6.29,0.938 8.62,2.578 l 9.55,-22.382 c -6.29,-5.586 -15.37,-9.083 -25.86,-9.083"
         style="fill:#4e4f51;fill-opacity:1;fill-rule:nonzero;stroke:none"
         id="path1014"
         inkscape:connector-curvature="0" /><path
         d="m 2031.98,344.773 v 74.336 c 0,12.344 -3.96,17.934 -13.51,17.934 -9.32,0 -14.22,-4.652 -14.22,-18.867 v -73.403 h -34.94 v 153.555 h 34.94 v -44.512 c 6.52,6.289 14.69,10.254 23.53,10.254 26.8,0 39.14,-13.75 39.14,-41.933 v -77.364 h -34.94"
         style="fill:#4e4f51;fill-opacity:1;fill-rule:nonzero;stroke:none"
         id="path1016"
         inkscape:connector-curvature="0" /><path
         d="m 874.441,128.484 c -25.156,0 -58.945,10.489 -64.07,43.106 l 32.625,8.848 c 4.192,-16.305 18.399,-21.192 32.149,-21.192 11.418,0 27.96,3.731 27.96,18.399 0,27.738 -88.078,6.289 -88.078,61.527 0,32.379 29.828,48.457 61.75,48.457 21.907,0 54.754,-10.492 59.18,-39.848 l -33.086,-8.847 c -4.187,13.988 -14.91,17.699 -27.488,17.699 -14.453,0 -24.707,-4.184 -24.707,-14.438 0,-26.093 88.777,-3.496 88.777,-62.91 0,-33.555 -33.777,-50.801 -65.012,-50.801"
         style="fill:#4e4f51;fill-opacity:1;fill-rule:nonzero;stroke:none"
         id="path1018"
         inkscape:connector-curvature="0" /><path
         d="m 999.102,221.926 c -12.122,0 -15.618,-7.699 -16.321,-19.809 h 31.229 c -0.47,13.516 -4.89,19.809 -14.908,19.809 z m -17.239,-41.723 c 0.461,-14.902 6.985,-22.832 17.934,-22.832 11.893,0 14.683,6.762 16.543,14.688 l 31.46,-5.586 c -5.13,-26.328 -24.47,-37.989 -47.77,-37.989 -34.014,0 -53.358,23.067 -53.358,60.821 0,33.554 18.641,61.269 52.195,61.269 44.033,0 50.793,-34.472 50.793,-70.371 h -67.797"
         style="fill:#4e4f51;fill-opacity:1;fill-rule:nonzero;stroke:none"
         id="path1020"
         inkscape:connector-curvature="0" /><path
         d="m 1116.77,217.02 c -17.72,0 -22.83,-13.512 -22.83,-32.848 v -52.895 h -34.97 v 116.504 h 33.32 l 0.94,-22.832 h 0.94 c 2.09,12.348 7.23,25.625 22.36,25.625 3.97,0 6.06,-0.469 9.09,-1.148 v -33.324 c -2.8,0.683 -4.42,0.918 -8.85,0.918"
         style="fill:#4e4f51;fill-opacity:1;fill-rule:nonzero;stroke:none"
         id="path1022"
         inkscape:connector-curvature="0" /><path
         d="m 1204.6,131.277 h -34.94 l -36.58,116.504 h 36.58 l 14.43,-62.441 c 0.7,-3.027 2.35,-14.453 2.79,-17.949 h 0.47 c 0.47,3.73 2.35,15.16 3.03,17.949 l 14.22,62.441 h 36.82 L 1204.6,131.277"
         style="fill:#4e4f51;fill-opacity:1;fill-rule:nonzero;stroke:none"
         id="path1024"
         inkscape:connector-curvature="0" /><path
         d="m 1250.5,131.277 v 116.504 h 34.96 V 131.277 Z m 0,124.668 v 28.891 h 34.96 v -28.891 h -34.96"
         style="fill:#4e4f51;fill-opacity:1;fill-rule:nonzero;stroke:none"
         id="path1026"
         inkscape:connector-curvature="0" /><path
         d="m 1347.2,128.484 c -36.12,0 -51.74,22.129 -51.74,60.356 0,36.344 15.16,61.734 51.5,61.734 31.45,0 41.7,-20.039 43.58,-38.437 l -31.94,-6.289 c -1.15,10.492 -4.18,16.078 -13.04,16.078 -9.32,0 -14.2,-4.203 -14.2,-32.621 0,-25.86 5.58,-31.934 15.84,-31.934 6.99,0 11.19,3.969 12.81,15.156 l 31.68,-8.164 c -5.82,-22.597 -20.02,-35.879 -44.49,-35.879"
         style="fill:#4e4f51;fill-opacity:1;fill-rule:nonzero;stroke:none"
         id="path1028"
         inkscape:connector-curvature="0" /><path
         d="m 1450.19,221.926 c -12.13,0 -15.63,-7.699 -16.31,-19.809 h 31.21 c -0.47,13.516 -4.88,19.809 -14.9,19.809 z m -17.25,-41.723 c 0.47,-14.902 6.99,-22.832 17.93,-22.832 11.89,0 14.69,6.762 16.54,14.688 l 31.47,-5.586 c -5.12,-26.328 -24.48,-37.989 -47.78,-37.989 -34,0 -53.36,23.067 -53.36,60.821 0,33.554 18.66,61.269 52.21,61.269 44.02,0 50.78,-34.472 50.78,-70.371 h -67.79"
         style="fill:#4e4f51;fill-opacity:1;fill-rule:nonzero;stroke:none"
         id="path1030"
         inkscape:connector-curvature="0" /><path
         d="m 1553.88,128.484 c -22.85,0 -44.05,9.551 -49.42,33.559 l 31.47,7.223 c 1.62,-8.868 7.22,-13.75 17.48,-13.75 7.91,0 17.93,2.558 17.93,11.195 0,16.543 -63.38,3.492 -63.38,46.812 0,24.942 23.53,37.051 48.48,37.051 24,0 43.8,-13.047 45.89,-30.976 l -28.88,-6.993 c -3.03,6.993 -7.7,11.172 -17.01,11.172 -7.47,0 -14.69,-2.324 -14.69,-8.609 0,-15.371 63.61,-3.031 63.61,-45.434 0,-28.906 -26.33,-41.25 -51.48,-41.25"
         style="fill:#4e4f51;fill-opacity:1;fill-rule:nonzero;stroke:none"
         id="path1032"
         inkscape:connector-curvature="0" /><g
         id="g1034"><g
           id="g1036"
           clip-path="url(#clipPath1040)"><g
             id="g1042"
             clip-path="url(#clipPath1046)"><path
               d="M 0,0 V 618 H 207 V 413 H 412 V 618 H 619 V 0 H 412 V 206 H 207 V 0"
               style="fill:url(#radialGradient1052);fill-opacity:1;fill-rule:nonzero;stroke:none"
               id="path1054"
               inkscape:connector-curvature="0" /></g></g></g><path
         d="M 82.4883,96.7188 C 80.6445,96.7188 79.082,96.582 77.7656,96.25 76.5234,95.9375 75.4609,95.332 74.6094,94.3359 73.8086,93.3594 73.2031,91.8555 72.8516,89.9023 72.4805,87.9492 72.293,85.2734 72.293,81.8555 V 68.125 h 22.1289 v 13.0078 c 0,3.457 -0.3594,6.2891 -0.9961,8.418 -0.6719,2.0898 -1.5625,3.6719 -2.625,4.6875 -1.0664,1.0351 -2.3516,1.6992 -3.836,2.0117 -1.4296,0.332 -2.914,0.4688 -4.4765,0.4688 z M 152.227,101.074 114.813,81.7188 V 68.125 h 37.414 V 40.7227 H 50.3164 v 43.3007 c 0,7.7539 0.5742,14.2188 1.6719,19.4146 1.1719,5.214 2.8945,9.375 5.293,12.5 2.3593,3.183 5.4609,5.429 9.2695,6.777 3.793,1.308 8.3906,1.992 13.75,1.992 6.3906,0 11.7812,-1.562 16.1055,-4.707 4.3357,-3.164 7.9957,-7.305 10.9567,-12.461 l 44.864,24.883 v -31.348"
         style="fill:#ffffff;fill-opacity:1;fill-rule:nonzero;stroke:none"
         id="path1056"
         inkscape:connector-curvature="0" /><path
         d="M 152.227,145.977 H 50.7813 v 75.722 H 73.0781 V 173.203 H 88.332 v 39.57 h 22.332 v -39.57 h 19.246 v 49.434 h 22.317 v -76.66"
         style="fill:#ffffff;fill-opacity:1;fill-rule:nonzero;stroke:none"
         id="path1058"
         inkscape:connector-curvature="0" /><path
         d="m 127.629,320.082 c 6.617,-2.07 11.875,-4.961 15.738,-8.613 3.891,-3.696 6.692,-8.227 8.305,-13.52 1.641,-5.254 2.461,-11.133 2.461,-17.597 0,-6.973 -0.91,-13.321 -2.738,-18.965 -1.856,-5.645 -4.864,-10.449 -9.09,-14.453 -4.207,-3.985 -9.676,-7.051 -16.387,-9.239 -6.707,-2.148 -14.949,-3.203 -24.68,-3.203 -9.2341,0 -17.1364,1.035 -23.7067,3.145 -6.5469,2.109 -11.9532,5.136 -16.2032,9.082 -4.2617,3.945 -7.3867,8.808 -9.3398,14.629 -1.9414,5.781 -2.8945,12.382 -2.8945,19.785 0,6.445 0.5898,12.012 1.8437,16.699 1.2305,4.668 2.9336,8.555 5.1367,11.777 2.1992,3.168 4.8086,5.668 7.793,7.543 2.9297,1.856 6.1797,3.106 9.6758,3.828 l 8.1484,-24.007 c -4.4062,-1.133 -7.3281,-2.95 -8.7031,-5.547 -1.3555,-2.578 -2.0625,-6.406 -2.0625,-11.543 0,-2.852 0.3242,-5.43 0.9805,-7.695 0.664,-2.247 2.0585,-4.161 4.1953,-5.762 2.0937,-1.602 5.1484,-2.852 9.1211,-3.692 3.9961,-0.898 9.3359,-1.347 16.0153,-1.347 6.543,0 11.875,0.547 15.93,1.562 4.043,1.035 7.148,2.442 9.375,4.258 2.219,1.777 3.672,3.945 4.453,6.465 0.742,2.48 1.133,5.254 1.133,8.223 0,4.082 -1.277,7.519 -3.84,10.312 -2.547,2.734 -7.305,4.297 -14.273,4.59 v -15.84 H 95.2344 v 42.172 h 7.5316 c 9.976,0 18.23,-1.016 24.863,-3.047"
         style="fill:#ffffff;fill-opacity:1;fill-rule:nonzero;stroke:none"
         id="path1060"
         inkscape:connector-curvature="0" /><path
         d="M 152.227,340.648 H 50.7813 v 27.247 H 152.227 v -27.247"
         style="fill:#ffffff;fill-opacity:1;fill-rule:nonzero;stroke:none"
         id="path1062"
         inkscape:connector-curvature="0" /><path
         d="m 101.414,450.531 c -10.457,0 -18.0351,-1.621 -22.7109,-4.863 -4.6718,-3.223 -6.957,-7.91 -6.957,-14.043 0,-6.191 2.2852,-10.859 6.957,-14.102 4.6758,-3.242 12.2539,-4.863 22.7109,-4.863 9.965,0 17.434,1.66 22.465,4.942 5.059,3.281 7.535,7.968 7.535,14.023 0,6.016 -2.476,10.684 -7.535,14.004 -5.031,3.242 -12.5,4.902 -22.465,4.902 z m 0.078,27.071 c 8.84,0 16.528,-1.094 23.098,-3.282 6.555,-2.226 12.051,-5.332 16.457,-9.336 4.375,-4.004 7.676,-8.828 9.832,-14.453 2.168,-5.664 3.191,-11.933 3.191,-18.906 0,-6.992 -1.023,-13.301 -3.191,-18.965 -2.156,-5.625 -5.457,-10.43 -9.832,-14.453 -4.406,-3.984 -9.902,-7.09 -16.457,-9.219 -6.57,-2.187 -14.258,-3.242 -23.098,-3.242 -8.7068,0 -16.3553,1.133 -22.9061,3.379 -6.5742,2.266 -12.0703,5.41 -16.457,9.473 -4.4219,4.043 -7.6914,8.867 -9.8945,14.453 -2.1289,5.605 -3.1758,11.797 -3.1758,18.574 0,6.758 1.0469,12.949 3.1758,18.496 2.2031,5.645 5.4726,10.449 9.8945,14.551 4.3867,4.101 9.8828,7.305 16.457,9.551 6.5508,2.265 14.1993,3.379 22.9061,3.379"
         style="fill:#ffffff;fill-opacity:1;fill-rule:nonzero;stroke:none"
         id="path1064"
         inkscape:connector-curvature="0" /><path
         d="M 152.227,550.004 90.3438,517.348 c 2.5468,0.215 5.4453,0.429 8.621,0.644 3.1912,0.176 6.1992,0.352 9.0942,0.43 3.379,0.098 6.812,0.156 10.293,0.156 h 33.875 V 493.832 H 50.7813 v 27.539 l 61.2697,32.324 c -1.934,-0.234 -4.113,-0.332 -6.465,-0.39 -2.371,-0.078 -4.563,-0.117 -6.6212,-0.254 -2.4492,-0.098 -4.871,-0.156 -7.2382,-0.156 H 50.7813 V 577.66 H 152.227 v -27.656"
         style="fill:#ffffff;fill-opacity:1;fill-rule:nonzero;stroke:none"
         id="path1066"
         inkscape:connector-curvature="0" /></g></g></svg>