<?xml version="1.0" encoding="utf-8"?>
<!-- Generator: Adobe Illustrator 16.0.0, SVG Export Plug-In . SVG Version: 6.00 Build 0)  -->
<!DOCTYPE svg PUBLIC "-//W3C//DTD SVG 1.1 Tiny//EN" "http://www.w3.org/Graphics/SVG/1.1/DTD/svg11-tiny.dtd">
<svg version="1.1" baseProfile="tiny" id="Layer_1" xmlns="http://www.w3.org/2000/svg" xmlns:xlink="http://www.w3.org/1999/xlink"
	 x="0px" y="0px" width="549.84px" height="269.521px" viewBox="0 0 549.84 269.521" xml:space="preserve">
<g id="Lag_2">
	<g id="Layer_1_2_">
		<g>
			<g>
				<path fill="#4298B6" d="M8.04,213.601c1.32-7.561,5.88-9,9.48-9c7.2,0,8.76,4.08,12.36,15.479l6.96,21.601h0.24l6.96-21.601
					c3.6-11.28,5.16-15.479,12.36-15.479c3.6,0,8.16,1.56,9.48,9l5.64,32.279c1.2,6.48,2.4,13.681,2.4,15.84
					c0,3.12-2.52,6.841-6.72,6.841c-6.48,0-7.56-4.561-8.28-9.48l-4.44-27.84h-0.24l-9.6,30.84c-1.44,4.561-3.48,6.48-7.8,6.48
					c-4.32,0-6.48-1.801-7.8-6.48l-9.6-30.84H19.2L15,259.08c-0.72,4.92-1.8,9.48-8.28,9.48c-4.2,0-6.72-3.601-6.72-6.841
					c0-2.159,1.2-9.239,2.4-15.84L8.04,213.601z"/>
				<path fill="#4298B6" d="M147.72,236.521c0,19.92-12.24,32.88-30.84,32.88s-30.84-12.84-30.84-32.88
					c0-19.92,12.24-32.88,30.84-32.88C135.48,203.76,147.72,216.601,147.72,236.521z M101.28,236.521c0,9.96,4.44,19.56,15.48,19.56
					c11.04,0,15.48-9.6,15.48-19.56s-4.56-19.561-15.48-19.561C105.84,216.96,101.28,226.561,101.28,236.521z"/>
				<path fill="#4298B6" d="M164.4,212.16c0-5.04,3-7.56,7.2-7.56c3.84,0,5.16,1.68,9.84,7.68l23.76,29.76h0.24v-29.88
					c0-5.04,3-7.56,7.2-7.56c4.2,0,7.2,2.52,7.2,7.56v48.72c0,5.04-3,7.561-7.2,7.561c-3.84,0-5.16-1.681-9.84-7.681L179.04,231
					h-0.24v29.88c0,5.04-3,7.561-7.2,7.561c-4.2,0-7.2-2.521-7.2-7.561V212.16L164.4,212.16z"/>
				<path fill="#4298B6" d="M243.48,251.521c3.48,0,8.16,3.6,15.48,3.6c5.52,0,7.56-2.88,7.56-5.88c0-4.8-5.52-5.76-13.56-8.4
					c-7.44-2.399-15.12-5.52-15.12-16.92c0-13.68,10.68-20.16,22.56-20.16c11.521,0,17.88,3.96,17.88,9.48
					c0,3.84-2.52,6.72-6.359,6.72c-4.561,0-6.121-2.399-12.121-2.399c-3.84,0-6.48,2.04-6.48,5.159c0,3.601,3.48,4.08,13.44,7.32
					c7.8,2.521,15.239,6.48,15.239,18.48c0,14.52-10.68,21-24,21c-8.4,0-21.12-3.24-21.12-10.32
					C236.76,255.24,239.16,251.521,243.48,251.521z"/>
				<path fill="#4298B6" d="M300.48,212.28c0-4.561,3.48-7.2,7.2-7.2h21.84c4.44,0,7.2,2.64,7.2,6.601c0,4.079-2.641,6.6-7.2,6.6
					h-14.76v11.4H328.2c4.44,0,7.2,2.52,7.2,6.6s-2.64,6.6-7.2,6.6H314.76v11.761H330c4.439,0,7.199,2.52,7.199,6.6
					c0,3.96-2.64,6.6-7.199,6.6h-22.44c-3.72,0-7.2-2.52-7.2-7.199v-48.36H300.48z"/>
				<path fill="#4298B6" d="M354.48,212.16c0-5.04,3-7.56,7.2-7.56c3.84,0,5.16,1.68,9.84,7.68l23.76,29.76h0.24v-29.88
					c0-5.04,3-7.56,7.2-7.56s7.2,2.52,7.2,7.56v48.72c0,5.04-3,7.561-7.2,7.561c-3.84,0-5.16-1.681-9.84-7.681L369.12,231h-0.239
					v29.88c0,5.04-3,7.561-7.2,7.561s-7.2-2.521-7.2-7.561V212.16z"/>
				<path fill="#4298B6" d="M436.2,251.521c3.48,0,8.16,3.6,15.48,3.6c5.52,0,7.56-2.88,7.56-5.88c0-4.8-5.52-5.76-13.56-8.4
					c-7.44-2.399-15.12-5.52-15.12-16.92c0-13.68,10.68-20.16,22.56-20.16c11.521,0,17.88,3.96,17.88,9.48
					c0,3.84-2.52,6.72-6.359,6.72c-4.561,0-6.12-2.399-12.12-2.399c-3.84,0-6.48,2.04-6.48,5.159c0,3.601,3.48,4.08,13.44,7.32
					c7.8,2.521,15.24,6.48,15.24,18.48c0,14.52-10.68,21-24,21c-8.4,0-21.12-3.24-21.12-10.32
					C429.48,255.24,431.88,251.521,436.2,251.521z"/>
				<path fill="#4298B6" d="M549.84,236.521c0,19.92-12.24,32.88-30.841,32.88c-18.6,0-30.84-12.84-30.84-32.88
					c0-19.92,12.24-32.88,30.84-32.88C537.48,203.76,549.84,216.601,549.84,236.521z M503.4,236.521c0,9.96,4.44,19.56,15.48,19.56
					s15.479-9.6,15.479-19.56s-4.439-19.561-15.479-19.561S503.4,226.561,503.4,236.521z"/>
			</g>
		</g>
		<g>
			<path fill="#4298B6" d="M159.72,0c-9.12,0-16.44,6.96-16.56,16.32l0.36,147.84h33.36L176.4,16.32C176.16,6.96,168.84,0,159.72,0z
				"/>
			<path fill="#4298B6" d="M401.88,16.32C401.76,6.96,394.32,0,385.32,0c-9.12,0-16.439,6.96-16.56,16.32l-0.12,147.84H402V16.32
				H401.88z"/>
			<path fill="#4298B6" d="M271.92,120.72c-8.641,0-15.24,6.24-15.24,15.48v27.96h30.72V136.2
				C287.4,126.96,280.56,120.72,271.92,120.72z"/>
			<path fill="#4298B6" d="M215.88,57.36c-9.12,0-16.44,6.96-16.56,16.32l0.12,90.6h33.36l-0.24-90.6
				C232.32,64.32,225,57.36,215.88,57.36z"/>
			<path fill="#4298B6" d="M329.04,57.36c-9.119,0-16.439,6.96-16.56,16.32l0.12,90.6h33.36l-0.36-90.6
				C345.48,64.32,338.16,57.36,329.04,57.36z"/>
		</g>
	</g>
</g>
</svg>
